<svg width="683" height="683" viewBox="0 0 683 683" fill="none" xmlns="http://www.w3.org/2000/svg">
<path d="M485.334 6.13343C482 6.53343 469.6 7.6001 457.867 8.66676C446 9.73343 427.067 10.6668 415.734 10.6668C386.134 10.6668 376.267 14.4001 369.067 28.5334C365.467 35.3334 365.067 48.1334 368.267 54.2668L370.4 58.4001L365.067 62.8001C353.867 71.7334 350.267 88.5334 356.534 102.267L359.734 109.067L355.867 112.8C343.467 124.667 343.467 147.333 355.734 159.067L359.6 162.8L356.267 169.333C352.4 177.2 352 188.667 355.334 197.067C358.134 204 368.534 213.6 375.734 215.733C379.2 216.8 392.8 217.333 415.867 217.333C442.8 217.333 450.667 217.733 450.667 218.933C450.667 219.867 450 229.333 449.2 240C447.6 262.533 449.2 286.267 453.467 301.333C461.334 329.867 476.4 343.867 500.667 345.067C513.2 345.6 518.8 343.467 523.734 336C526.934 331.467 526.934 330.933 526 311.333C523.334 250.4 537.734 222.667 578.667 209.6C593.334 204.933 595.867 204.667 599.067 207.867C605.334 213.733 610.534 214.667 635.334 214.667C652.267 214.667 660 214.133 663.067 212.8C668.267 210.667 674 204.667 675.867 199.6C677.867 194.4 677.867 26.9334 675.867 21.7334C673.867 16.4001 669.467 12.0001 663.334 9.2001C658.8 7.06676 654.534 6.66676 636 6.66676C623.867 6.66676 611.734 7.33343 608.934 8.13343C606.267 8.8001 601.867 11.6001 599.334 14.1334C593.734 19.7334 591.2 19.8668 573.867 15.2001C544.267 7.2001 540.134 6.53343 515.334 6.13343C502.134 5.86676 488.667 5.86676 485.334 6.13343ZM537.334 26.0001C544.267 27.0668 555.467 29.4668 562 31.4668C568.667 33.3334 578.267 35.6001 583.334 36.5334L592.667 38.1334L593.067 112.267L593.334 186.4L581.734 189.2C575.2 190.8 563.867 195.067 556.4 198.667C531.2 210.933 516.667 230.133 510.4 259.6C508 270.4 507.467 277.2 507.467 299.6V326.667H501.334C476.534 326.667 463.867 294 468.134 241.2C468.934 230.667 469.867 211.333 470.134 198.133C470.667 172.667 472.134 164 478 153.867C482.667 146 491.067 138.933 502 133.867C507.2 131.467 512.4 128.533 513.334 127.333C517.734 122.133 513.334 113.333 506.4 113.333C501.467 113.333 490.667 117.867 482 123.467L475.467 127.867L473.6 123.6C472.667 121.333 470.4 117.467 468.534 114.933C465.467 110.933 465.334 110.267 467.067 108.267C471.734 102.933 473.867 96.5334 473.867 88.0001C473.867 77.6001 470.667 70.8001 462.8 63.6001L457.467 58.8001L459.467 53.7334C461.6 48.8001 461.467 36.5334 459.334 29.8668C458.4 27.0668 458.934 26.9334 474.934 25.7334C500.134 23.7334 523.334 23.8668 537.334 26.0001ZM657.067 26.9334C659.6 29.4668 659.334 192.4 656.8 194.533C655.6 195.6 648.267 196 633.867 195.733L612.667 195.333L612.267 112C612.134 66.1334 612.267 27.8668 612.667 26.9334C613.467 24.6668 654.8 24.6668 657.067 26.9334ZM435.334 31.2001C443.734 34.6668 445.334 44.1334 438.8 50.8001L434.934 54.6668H414.667C392.267 54.6668 388.134 53.6001 385.467 46.8001C382.934 40.8001 386.267 33.2001 392.667 30.5334C397.467 28.6668 430.267 29.0668 435.334 31.2001ZM448.8 75.8668C454.4 79.3334 456.8 86.2668 454.667 92.8001C453.734 95.6001 451.467 98.5334 448.8 100.133C445.067 102.4 441.867 102.667 412.934 102.667H381.067L376.534 98.1334C372.934 94.5334 372 92.5334 372 88.2668C372 82.5334 375.734 76.5334 380.534 74.6668C382 74.0001 397.2 73.4668 414 73.4668C442 73.3334 445.067 73.6001 448.8 75.8668ZM453.467 126.4C458.8 132.4 458.8 139.6 453.467 145.6L449.6 150L412 150.4L374.534 150.8L369.867 146.133C366.267 142.533 365.334 140.533 365.334 136.267C365.334 130.533 369.067 124.667 373.867 122.667C375.334 122 393.067 121.6 413.067 121.733L449.6 122L453.467 126.4ZM444.134 174.4C449.867 180.667 449.6 188 443.467 194.133L438.934 198.667H410.8C392.534 198.667 381.6 198.133 379.467 197.067C368.667 192.267 369.467 175.333 380.667 170.533C382.134 170 396.134 169.6 411.734 169.733L440.267 170L444.134 174.4Z" fill="white"/>
<path d="M198.4 170.667C186.534 173.6 177.867 179.6 165.2 193.467C147.467 212.667 139.467 216 118.534 213.333C97.4668 210.533 81.8668 215.467 67.2002 229.6C52.2668 243.867 46.8002 260.4 49.6002 282.267C52.1335 303.067 48.6668 311.2 30.1335 328.4C11.4668 345.733 5.3335 358.133 5.3335 377.733C5.46683 397.733 12.8002 410.667 34.5335 429.2C48.0002 440.667 52.0002 451.867 49.6002 471.067C46.9335 492.267 52.2668 509.067 66.2668 523.067C73.0668 529.867 83.4668 536.267 92.4002 539.2C95.0668 540 96.6668 536.4 70.1335 592.4C60.1335 613.467 52.0002 631.6 52.0002 632.667C52.0002 633.6 53.4668 636.133 55.2002 638.133L58.2668 641.867L82.1335 639.6C95.2002 638.4 107.067 637.333 108.267 637.333C109.6 637.333 117.467 645.467 126.667 656.533C135.467 667.067 143.6 676.133 144.8 676.533C148.134 677.733 151.067 677.467 153.734 675.467C155.2 674.267 162.8 655.067 172.8 627.2C181.867 601.733 189.467 580.667 189.734 580.533C190 580.267 193.067 580.933 196.667 582C205.067 584.667 220.4 584.533 229.2 581.867C233.067 580.8 236.4 580 236.667 580.267C236.934 580.533 244.267 600.8 253.067 625.333C261.867 649.867 269.467 670.933 270 672.133C271.2 675.067 276.8 677.467 280.534 676.533C282.267 676.133 290.134 667.867 299.467 656.533C317.867 634.4 312.934 636.133 345.467 639.467C368.4 641.733 371.067 641.333 373.467 635.067C374.934 631.333 374 629.2 348.8 576.267C340.4 558.4 333.067 542.8 332.667 541.6C332.134 539.733 333.334 538.933 337.734 537.6C351.067 533.6 367.734 517.333 373.6 502.667C376.267 496 376.534 493.333 376.267 473.333L376 451.333L380.134 442.933C382.8 437.467 386.267 433.067 390.4 429.6C402.8 419.733 410.8 410.667 415.067 401.6C418.667 394 419.334 390.8 419.734 379.867C420.667 357.333 414.667 344.667 395.334 328C387.467 321.333 382.534 315.867 380.134 311.333C376.8 304.933 376.667 303.733 376.534 282C376.534 256.667 375.334 251.6 367.067 239.067C354.134 219.6 331.867 210 306.934 213.333C286.534 216 275.334 211.333 262 194.667C248.134 177.333 235.6 170.667 215.334 169.867C208.8 169.6 201.067 170 198.4 170.667ZM226.534 190.133C233.734 192.267 236.267 194.4 254.8 214.533C268.134 228.933 286 234.933 307.067 232.133C329.867 229.067 345.2 236.4 354.934 255.067C357.6 260.267 357.867 262.533 358 284.667V308.667L362.534 317.867C367.067 327.067 373.6 334.533 386.267 345.067C390.134 348.133 394.934 353.6 396.934 357.067C400.4 362.8 400.667 364.533 400.667 376.667C400.667 388.8 400.4 390.533 396.934 396.267C394.934 399.733 389.867 405.467 385.6 408.933C373.067 419.467 366.8 426.667 362.267 435.867L358 444.667V468.667C358 492.667 357.867 492.667 354 499.733C347.467 511.733 336 520.133 324 522C320.667 522.4 313.067 522.267 307.067 521.467C285.734 518.8 268.267 524.667 254.8 539.067C232.267 563.2 228.8 565.333 212 565.333C200.4 565.333 188.8 559.867 181.6 550.933C170 536.533 164.8 531.867 155.467 527.333C143.334 521.467 133.334 519.867 118.534 521.6C99.3335 523.867 85.8668 519.067 76.0002 506.667C68.1335 496.667 66.5335 489.067 68.4002 469.067C70.8002 443.733 62.8002 427.067 38.6668 407.867C35.3335 405.2 30.8002 399.867 28.6668 395.867C25.2002 389.467 24.6668 387.333 24.6668 377.333C24.6668 363.067 27.7335 355.733 37.6002 346.933C53.0668 332.933 59.7335 325.6 62.9335 318.667C68.1335 307.6 69.7335 297.733 68.5335 284.267C68.0002 277.867 67.6002 270.267 67.7335 267.333C68.5335 254.933 78.9335 240.667 91.7335 234.4C97.2002 231.867 99.6002 231.467 110 231.867C132.667 232.8 139.467 232.4 147.2 230C157.6 226.667 167.067 219.733 176.667 208.267C185.6 197.6 191.734 192.8 199.467 190C206.4 187.467 218 187.6 226.534 190.133ZM142.267 541.467C148.934 543.6 156.267 549.6 165.067 560.4L173.334 570.4L159.334 609.467C151.6 630.933 145.2 648.667 144.934 648.8C144.8 649.067 139.2 642.533 132.667 634.4C126 626.4 119.467 619.2 118 618.667C116.534 618.133 106.934 618.533 96.8002 619.467C86.5335 620.533 78.0002 621.2 77.8668 620.933C77.4668 620.533 112 546.8 114.534 542.4C116.667 538.8 131.867 538.4 142.267 541.467ZM311.067 541.2C312.134 542.267 349.334 620.4 348.934 620.8C348.8 620.933 340.134 620.267 329.6 619.2C316.534 617.867 309.734 617.733 308 618.667C306.667 619.333 300.267 626.267 294 634C287.6 641.6 281.867 647.733 281.334 647.333C280.8 647.067 274.267 629.467 266.8 608.267L253.067 569.6L261.067 559.733C271.6 546.8 279.467 541.6 292 539.6C296.267 538.933 309.734 540 311.067 541.2Z" fill="white"/>
<path d="M192.667 244.533C114.267 257.333 63.6004 334.133 83.3337 409.867C89.467 433.067 100.134 451.867 117.334 469.467C136.4 488.933 155.067 499.867 180 506.267C255.734 525.467 331.067 476.4 344.667 398.8C356.534 331.2 312.8 264.267 245.6 247.2C229.734 243.2 207.6 242 192.667 244.533ZM240.667 265.2C286.4 277.333 319.6 313.867 326.8 360C330 380.667 325.6 408.933 316.4 427.067C293.467 472.533 244.8 498.133 195.6 490.533C173.067 487.067 150.934 476 134.134 460C117.6 444.133 106.934 426.4 101.2 404.667C97.2004 389.6 97.2004 363.733 101.2 348.667C113.334 303.333 150.4 269.867 196.667 262.667C207.734 260.933 229.467 262.133 240.667 265.2Z" fill="white"/>
<path d="M204.934 287.467C201.867 289.067 198.8 294.267 190.8 311.2L180.4 332.8L157.2 335.733C131.467 338.933 128.534 340.133 125.6 348.667C122.934 356.933 124.934 360.4 143.6 378.133L160.534 394.133L156.134 417.467C151.467 442.667 151.467 444.667 158 450.667C160.8 453.333 162.934 454 167.734 453.867C172.934 453.867 177.067 452.133 192.667 443.333C202.934 437.6 212 432.933 212.8 432.933C213.6 432.933 223.2 437.733 234.134 443.733C245.467 449.867 255.734 454.667 257.867 454.667C265.734 454.667 273.334 447.467 273.334 439.867C273.334 438.133 271.467 427.2 269.2 415.467L265.2 394.133L282.534 377.733C301.734 359.467 303.734 356 299.6 347.2C296.134 340 292.8 338.667 268 335.6L245.067 332.667L235.867 312.667C225.334 290.133 221.467 285.333 213.6 285.333C210.934 285.467 206.934 286.4 204.934 287.467ZM234.267 349.067C235.6 349.867 245.467 351.467 256 352.8C266.667 354 275.867 355.467 276.4 356C277.067 356.533 270.534 363.467 262.134 371.333C253.6 379.333 246.4 386.8 246 387.867C245.6 389.067 247.2 399.333 249.334 410.533C251.467 421.867 253.067 431.467 252.667 431.733C252.4 432 243.867 427.733 233.6 422.133C223.467 416.533 214 412 212.8 412C211.467 412 202.4 416.533 192.534 422C182.667 427.467 174.134 432 173.6 432C172.934 432 174.134 423.2 176.267 412.267C178.267 401.467 180 391.333 180 389.733C180 387.867 174.8 382 163.734 371.467C145.067 353.867 144.134 356 172 352.533C185.6 350.933 190.667 349.867 192.667 347.867C194.134 346.533 199.334 336.933 204 326.667L212.667 307.867L222.267 327.867C227.467 338.8 232.934 348.4 234.267 349.067Z" fill="white"/>
<path d="M595.6 255.733C593.733 257.733 593.333 261.333 593.333 277.067C593.333 294.267 593.6 296.267 596 298.667C599.333 302 604.133 302.133 608.133 298.8C611.2 296.267 611.333 295.6 611.333 277.6C611.333 261.067 611.067 258.667 608.8 256.133C605.6 252.667 598.533 252.4 595.6 255.733Z" fill="white"/>
<path d="M595.6 331.733C593.6 333.867 593.333 337.867 593.333 359.067C593.333 382.267 593.467 384.133 596 386.667C599.333 390 604.133 390.133 608.133 386.8C611.333 384.267 611.333 383.867 611.333 359.6C611.333 337.2 611.067 334.667 608.8 332.133C605.6 328.667 598.533 328.4 595.6 331.733Z" fill="white"/>
<path d="M516.533 396.533C514.133 398.4 514 401.2 513.333 481.6L512.667 564.667L498.933 565.067C489.2 565.333 484.133 566 482 567.467C477.733 570.267 475.333 577.6 477.067 582.533C478.267 586 548.4 670 553.733 674.4C557.867 677.867 565.6 677.867 570.267 674.4C573.733 672 632.933 602.933 645.067 587.467C649.467 581.733 649.067 574.267 644.133 569.2C640.267 565.467 639.867 565.333 626.133 565.333H612.133L611.733 494.133C611.333 426.267 611.2 422.8 608.8 420.133C605.6 416.667 598.533 416.4 595.6 419.733C593.6 422 593.333 429.467 593.333 500.267C593.333 592 591.467 583.067 610.933 583.867C617.467 584 622.667 584.667 622.4 585.2C621.333 587.733 563.2 655.733 562.267 655.6C561.733 655.467 547.733 639.333 531.333 620L501.467 584.667L513.067 584C525.067 583.2 529.733 581.6 531.2 577.867C531.6 576.8 532 536.267 532 487.867C532 401.733 532 400 529.333 397.333C526.267 394.267 520.267 393.867 516.533 396.533Z" fill="white"/>
</svg>
