<svg width="57" height="60" viewBox="0 0 57 60" fill="none" xmlns="http://www.w3.org/2000/svg">
<path d="M30.6999 18.1008C31.1999 17.6008 31.1999 16.8008 30.6999 16.3008C30.1999 15.8008 29.3999 15.8008 28.8999 16.3008C28.3999 16.8008 28.3999 17.6008 28.8999 18.1008C29.1999 18.4008 30.1999 18.6008 30.6999 18.1008Z" fill="black"/>
<path d="M52.7 39.8004V13.5004C54.7999 13.5004 56.5 11.8004 56.5 9.70039C56.5 7.60039 54.7 6.0004 52.7 6.0004H32.5V4.70039C32.5 2.60039 30.8 0.900391 28.7 0.900391C26.6 0.900391 24.9 2.60039 24.9 4.70039V6.0004H4.49995C2.39995 6.0004 0.699951 7.7004 0.699951 9.8004C0.699951 11.9004 2.39995 13.6004 4.49995 13.6004V39.9004C2.39995 39.9004 0.699951 41.6004 0.699951 43.7004C0.699951 45.8004 2.39995 47.5004 4.49995 47.5004H25.8L17.5 57.7004C17.1 58.2004 17.2 59.0004 17.7 59.5004C18.2 59.9004 19 59.8004 19.5 59.3004L27.4 49.6004V57.3004C27.4 58.0004 28 58.6004 28.7 58.6004C29.4 58.6004 30 58.0004 30 57.3004V49.6004L37.9 59.3004C38.3 59.8004 39.1 59.9004 39.7 59.5004C40.2 59.1004 40.3 58.3004 39.9 57.7004L31.4 47.2004H52.7C54.7999 47.2004 56.5 45.5004 56.5 43.4004C56.5 41.3004 54.7 39.8004 52.7 39.8004ZM3.29996 9.8004C3.29996 9.1004 3.89995 8.5004 4.59995 8.5004H26.1C26.8 8.5004 27.4 7.90039 27.4 7.20039V4.70039C27.4 4.00039 28 3.40039 28.7 3.40039C29.4 3.40039 30 4.00039 30 4.70039V7.20039C30 7.90039 30.6 8.5004 31.3 8.5004H52.8C53.5 8.5004 54.1 9.1004 54.1 9.8004C54.1 10.5004 53.5 11.1004 52.8 11.1004C47.3 11.1004 10.4 11.1004 4.69995 11.1004C3.89995 11.0004 3.29996 10.4004 3.29996 9.8004ZM7.09995 13.5004H50.1V16.0004H33.6C32.9 16.0004 32.3 16.6004 32.3 17.3004C32.3 18.0004 32.9 18.6004 33.6 18.6004H50.1V39.9004H7.09995V13.5004ZM52.7 44.8004H4.59995C3.89995 44.8004 3.29996 44.2004 3.29996 43.5004C3.29996 42.8004 3.89995 42.2004 4.59995 42.2004C10.1 42.2004 47 42.2004 52.7 42.2004C53.4 42.2004 54 42.8004 54 43.5004C54 44.2004 53.2999 44.8004 52.7 44.8004Z" fill="black"/>
<path d="M43.8 21.0008H40.1C39.4 21.0008 38.8 21.6008 38.8 22.3008C38.8 23.0008 39.4 23.6008 40.1 23.6008H40.8L33.6 30.7008C32.8 30.0008 31.7 29.7008 30.6 29.9008L26.7 26.0008C27.2 25.4008 27.6 24.5008 27.6 23.6008C27.6 21.5008 25.9 19.8008 23.8 19.8008C21.7 19.8008 20 21.5008 20 23.6008C20 24.6008 20.4 25.6008 21.1 26.3008L18.1 30.4008C17.6 30.1008 16.9 29.9008 16.3 29.9008C14.2 29.9008 12.5 31.6008 12.5 33.7008C12.5 35.8008 14.2 37.5008 16.3 37.5008C18.9 37.5008 20.8 34.8008 19.8 32.4008C23.5 27.4008 23.4 27.7008 23.5 27.5008C23.8 27.5008 24.2 27.5008 24.5 27.5008L28.4 31.4008C27.9 32.0008 27.5 32.9008 27.5 33.8008C27.5 35.9008 29.2 37.6008 31.3 37.6008C33.6 37.6008 35.4 35.5008 35 33.2008L42.7 25.6008V26.0008C42.7 26.7008 43.3 27.3008 44 27.3008C44.7 27.3008 45.3 26.7008 45.3 26.0008V22.3008C45.1 21.6008 44.5 21.0008 43.8 21.0008ZM15.9 34.8008C15.2 34.8008 14.6 34.2008 14.6 33.5008C14.6 32.8008 15.2 32.2008 15.9 32.2008C16.6 32.2008 17.2 32.8008 17.2 33.5008C17.2 34.2008 16.6 34.8008 15.9 34.8008ZM23.5 22.3008C24.2 22.3008 24.8 22.9008 24.8 23.6008C24.8 24.3008 24.2 24.9008 23.5 24.9008C22.8 24.9008 22.2 24.3008 22.2 23.6008C22.2 22.9008 22.8 22.3008 23.5 22.3008ZM31.1 34.8008C30.4 34.8008 29.8 34.2008 29.8 33.5008C29.8 32.8008 30.4 32.2008 31.1 32.2008C31.8 32.2008 32.4 32.8008 32.4 33.5008C32.4 34.2008 31.8 34.8008 31.1 34.8008Z" fill="black"/>
<path d="M10.9 53.5H5.80005V56H10.9V53.5Z" fill="black"/>
<path d="M15.9999 51H10.8999V53.5H15.9999V51Z" fill="black"/>
<path d="M47.6 53.5H42.5V56H47.6V53.5Z" fill="black"/>
<path d="M52.6999 51H47.5999V53.5H52.6999V51Z" fill="black"/>
</svg>
