<svg width="62" height="57" viewBox="0 0 62 57" fill="none" xmlns="http://www.w3.org/2000/svg">
<path d="M60.7 44.6H58.2V16.4C58.2 14.4 56.6 12.8 54.5 12.8H45.5C45.5 11 45.5 11.1 45.5 10.9C45.4 10.6 45.3 10.4 45 10.2L31.5 0.6C31.1 0.3 30.5 0.3 30 0.6L16.2 10.2C15.8 10.5 15.6 10.9 15.7 11.4V12.8H7.49995C5.49995 12.8 3.79996 14.4 3.79996 16.4V44.6H1.49995C0.799954 44.6 0.199951 45.2 0.199951 45.9V50.6C0.199951 51.2 0.599953 51.6 1.09995 51.8C17.5 56.7 16.7 56.5 17 56.5C46.8 56.5 45 56.5 45.4 56.4L61 51.7C61.5 51.5 61.9 51.1 61.9 50.5V45.8C61.9 45.2 61.2999 44.6 60.7 44.6ZM30.8 19.8L40.3 26.5H21.1C21.8 26 29.7 20.5 30.8 19.8ZM43 25.3L35.4 20C37 18.7 41.4 15.1 43 13.8C43 15 43 23.8 43 25.3ZM26 20L18.2 25.4V13.8L26 20ZM15.8 27.5C15.7 28.2 16.2 28.9 16.9 29C17 29 17 29 17 29C45.9 29 44.3 29 44.5 29C44.9 28.9 45.3 28.5 45.4 28.1C45.4 28 45.5 27.8 45.5 27.7V20.2H50.6V40.2H11.7V20.2H15.8V27.5ZM30.8 3.00002L42.2 11.2L33.3 18.5C33.3 18.5 31.5 17.3 31.5 17.2C31.1 16.9 30.5 16.9 30.1 17.2L28.3 18.5L19.2 11.2L30.8 3.00002ZM6.29996 16.4C6.29996 15.8 6.79995 15.3 7.49995 15.3H15.8V17.8H10.3C9.59996 17.8 9.09995 18.4 9.09995 19.1V41.6C9.09995 42.3 9.59996 42.9 10.3 42.9H51.8C52.5 42.9 53.1 42.3 53.1 41.6V19C53.1 18.3 52.5 17.7 51.8 17.7H45.4V15.2H54.3C54.9 15.2 55.5 15.7 55.5 16.3V44.5C53.8 44.5 7.89995 44.5 6.09995 44.5V16.4H6.29996ZM23.9 47.1H38.4V48.5H23.9V47.1ZM59.4 49.7L44.8 54H17.2L2.69995 49.7V47.2C5.29995 47.2 18.1 47.2 21.3 47.2V49.8C21.3 50.5 21.9 51.1 22.6 51.1H39.5C40.2 51.1 40.8 50.5 40.8 49.8V47.2C43.6 47.2 56.6 47.2 59.4 47.2V49.7Z" fill="black"/>
<path d="M25.3 35.2998H22.8V37.7998H25.3V35.2998Z" fill="black"/>
<path d="M29 35.2998H26.5V37.7998H29V35.2998Z" fill="black"/>
<path d="M32.8999 35.2998H30.3999V37.7998H32.8999V35.2998Z" fill="black"/>
<path d="M36.5999 35.2998H34.0999V37.7998H36.5999V35.2998Z" fill="black"/>
<path d="M40.5 35.2998H38V37.7998H40.5V35.2998Z" fill="black"/>
</svg>
