<svg width="63" height="63" viewBox="0 0 63 63" fill="none" xmlns="http://www.w3.org/2000/svg">
<path d="M61.1 33.9999C61.8 33.9999 62.4 33.3999 62.4 32.6999V2.19992C62.4 1.49992 61.8 0.899902 61.1 0.899902H1.79999C1.09999 0.899902 0.5 1.49992 0.5 2.19992V32.7999C0.5 33.4999 1.09999 34.0999 1.79999 34.0999C2.59999 34.0999 29.3 34.0999 30.1 34.0999V41.6999H7C6.3 41.6999 5.70001 42.2999 5.70001 42.9999V49.4999C2.80001 50.0999 0.5 52.6999 0.5 55.6999C0.5 59.1999 3.4 62.0999 7 62.0999C10.6 62.0999 13.5 59.1999 13.5 55.6999C13.5 52.5999 11.3 49.9999 8.29999 49.4999V44.2999H30.3V49.4999C27.4 50.0999 25.1 52.6999 25.1 55.6999C25.1 59.1999 28 62.0999 31.6 62.0999C35.1 62.0999 38.1 59.1999 38.1 55.6999C38.1 52.5999 35.9 49.9999 32.9 49.4999V44.2999H54.9V49.4999C52 50.0999 49.7 52.6999 49.7 55.6999C49.7 59.1999 52.6 62.0999 56.2 62.0999C59.7 62.0999 62.7 59.1999 62.7 55.6999C62.7 52.5999 60.5 49.9999 57.5 49.4999V42.9999C57.5 42.2999 56.9 41.6999 56.2 41.6999H32.8V33.9999C33.7 33.9999 60.3 33.9999 61.1 33.9999ZM10.9 55.6999C10.9 57.7999 9.20001 59.4999 7.10001 59.4999C5.00001 59.4999 3.29999 57.7999 3.29999 55.6999C3.29999 53.5999 5.00001 51.8999 7.10001 51.8999C9.10001 51.8999 10.9 53.5999 10.9 55.6999ZM35.3 55.6999C35.3 57.7999 33.6 59.4999 31.5 59.4999C29.4 59.4999 27.7 57.7999 27.7 55.6999C27.7 53.5999 29.4 51.8999 31.5 51.8999C33.6 51.8999 35.3 53.5999 35.3 55.6999ZM59.8 55.6999C59.8 57.7999 58.1 59.4999 56 59.4999C53.9 59.4999 52.2 57.7999 52.2 55.6999C52.2 53.5999 53.9 51.8999 56 51.8999C58.1 51.8999 59.8 53.5999 59.8 55.6999ZM3.20001 3.49991H60V31.4999H43.2V27.6999C43.2 22.8999 40.2 18.7999 36 17.0999C37.3 15.8999 38 14.2999 38 12.3999C38 8.8999 35.1 5.99991 31.5 5.99991C28 5.99991 25 8.8999 25 12.3999C25 14.1999 25.8 15.8999 27 17.0999C22.9 18.7999 19.8 22.8999 19.8 27.6999V31.4999H3.10001V3.49991H3.20001ZM27.7 12.3999C27.7 10.2999 29.4 8.59991 31.5 8.59991C33.6 8.59991 35.3 10.2999 35.3 12.3999C35.3 14.4999 33.6 16.1999 31.5 16.1999C29.4 16.1999 27.7 14.4999 27.7 12.3999ZM22.5 27.6999C22.5 22.7999 26.5 18.7999 31.5 18.7999C36.5 18.7999 40.5 22.7999 40.5 27.6999V31.4999H38V26.3999C38 25.6999 37.4 25.0999 36.7 25.0999C36 25.0999 35.4 25.6999 35.4 26.3999V31.4999H27.7V26.3999C27.7 25.6999 27.1 25.0999 26.4 25.0999C25.7 25.0999 25.1 25.6999 25.1 26.3999V31.4999H22.6V27.6999H22.5Z" fill="black"/>
<path d="M9.5 13.6997H7V16.1997H9.5V13.6997Z" fill="black"/>
<path d="M14.7 13.6997H12.2V16.1997H14.7V13.6997Z" fill="black"/>
<path d="M19.8 13.6997H17.3V16.1997H19.8V13.6997Z" fill="black"/>
<path d="M46.8 13.6997H44.3V16.1997H46.8V13.6997Z" fill="black"/>
<path d="M52 13.6997H49.5V16.1997H52V13.6997Z" fill="black"/>
<path d="M57.2 13.6997H54.7V16.1997H57.2V13.6997Z" fill="black"/>
</svg>
