<svg width="683" height="683" viewBox="0 0 683 683" fill="none" xmlns="http://www.w3.org/2000/svg">
<path d="M328.8 1.3333C314 5.06663 298.933 17.7333 292.133 32C289.067 38.5333 288.667 40.9333 288.8 53.3333C288.8 61.0666 289.2 68.4 289.467 69.6C289.867 71.3333 273.2 81.6 212 116.933L134 162.133L127.333 156.667C112.533 144.8 94.1333 141.067 76.3999 146.533C39.5999 157.867 26.5333 204.533 52.2666 232.667C59.5999 240.667 66.7999 245.467 76.5333 248.8L82.6666 250.933V341.333V431.733L76.5333 433.867C61.3333 439.067 47.7333 451.6 42.5333 465.067C28.2666 502.4 56.5333 541.067 95.9999 538.267C108 537.467 115.867 534.4 126.4 526.533C132.4 522 134.133 521.2 136.533 522.4C138 523.067 173.2 543.333 214.667 567.2C273.733 601.467 289.867 611.333 289.467 613.067C289.2 614.267 288.8 621.6 288.8 629.333C288.667 641.733 289.067 644.133 292.133 650.667C297.467 662 306.533 671.2 318.4 676.933C328 681.733 329.2 682 341.333 682C353.467 682 354.667 681.733 364.267 676.933C376 671.2 384.533 662.667 390.267 650.933C393.6 644.133 394 641.867 394 630C394 622.667 393.6 615.467 392.933 613.867C392 611.333 395.333 609.2 426.267 591.333C445.2 580.4 479.733 560.533 502.933 547.067C526.133 533.6 546.133 522.267 547.2 521.867C548.267 521.467 552.133 523.333 556.267 526.533C566.667 534.4 574.8 537.467 586.533 538.267C609.733 539.867 628.933 528.4 639.2 506.8C642.933 498.8 643.333 496.8 643.333 485.333C643.2 469.333 640 460.4 630.4 450C623.067 442 615.867 437.2 606.133 433.867L600 431.733V341.333V250.933L606.133 248.8C621.333 243.6 634.933 231.067 640.133 217.6C654.267 180.4 626.4 142 586.8 144.267C575.067 144.933 563.067 149.867 554.133 157.6L548.933 162.133L504.8 136.667C480.533 122.667 445.2 102.267 426.267 91.3333C395.333 73.4666 392 71.3333 392.933 68.8C393.6 67.2 394 60 394 52.6666C394 41.0666 393.467 38.4 390.533 32C381.867 13.7333 364 1.59996 344.533 0.666631C338.667 0.266631 331.733 0.666631 328.8 1.3333ZM357.867 24.5333C369.733 31.4666 375.333 42.2666 374.4 56.5333C373.2 75.8666 355.2 90.2666 336 87.2C327.467 85.8666 317.333 78.9333 312.667 71.4666C309.467 66.1333 308.667 63.2 308.267 55.4666C307.867 47.2 308.267 45.0666 311.6 38.8C315.733 30.8 322.267 24.8 330.133 21.8666C337.867 19.0666 350.533 20.1333 357.867 24.5333ZM303.333 92C306.933 96 317.6 102.4 324.4 104.8L330.4 106.8L330.933 128C331.467 152.133 332.4 154.667 341.333 154.667C349.867 154.667 350.533 152.8 350.933 128.667L351.333 107.6L360.4 103.867C365.467 101.867 372.533 97.7333 376.133 94.6666L382.667 89.2L460.667 134.267L538.8 179.333L537.733 186C536.4 194.533 536.4 201.733 537.733 209.467L538.8 215.733L523.067 224.667C503.6 235.867 501.333 237.867 501.333 243.467C501.333 248.267 506.267 253.333 511.067 253.333C512.533 253.333 521.6 248.8 531.2 243.2C542 236.933 549.2 233.467 550.133 234.267C550.933 234.8 554.533 237.6 558.133 240.267C563.6 244.4 569.867 247.467 578.4 250.133C579.733 250.533 580 269.467 579.733 341.333L579.333 432.133L572.667 434.4C565.733 436.8 559.2 440.8 553.067 446.4L549.467 449.733L531.6 439.467C521.733 433.867 512.267 429.333 510.8 429.333C506.667 429.333 501.333 435.2 501.333 439.733C501.333 444.667 504 446.933 523.067 457.867L538.8 466.933L537.733 473.2C536.4 480.933 536.4 488.133 537.733 496.667L538.8 503.333L460.8 548.4L382.667 593.333L375.467 587.467C371.467 584.133 364.533 580.267 360.133 578.667L352.267 575.733L351.733 554.667C351.2 530.533 350.267 528 341.333 528C332.4 528 331.467 530.533 330.933 554.667L330.4 575.733L322.533 578.667C318.133 580.267 311.2 584.133 307.333 587.467L300 593.333L221.867 548.4L143.867 503.333L144.933 496.667C146.267 488.133 146.267 480.933 144.933 473.2L143.867 466.933L159.6 457.867C178.667 446.933 181.333 444.667 181.333 439.733C181.333 435.067 176 429.333 171.733 429.333C170 429.333 160.933 433.867 151.333 439.467C140.8 445.6 133.467 449.067 132.533 448.4C131.733 447.867 128.133 445.067 124.533 442.4C119.067 438.133 112 434.8 104.4 432.533C101.867 431.867 101.867 250.8 104.4 250.133C112.667 247.467 119.067 244.4 124.533 240.267C128.133 237.6 131.733 234.8 132.533 234.267C133.467 233.467 140.667 236.933 151.467 243.2C161.067 248.8 170.133 253.333 171.6 253.333C176.4 253.333 181.333 248.267 181.333 243.467C181.333 237.867 179.067 235.867 159.6 224.667L143.867 215.733L144.933 209.467C146.267 201.733 146.267 194.533 144.933 186L143.867 179.333L176.933 160.4C195.067 149.867 230.133 129.733 254.667 115.467C279.2 101.067 299.733 89.4666 300.133 89.3333C300.533 89.3333 302 90.5333 303.333 92ZM103.2 165.6C111.867 168.267 121.867 178.933 124.667 188.4C129.467 205.067 121.2 221.867 104.667 228.667C98.3999 231.333 85.8666 231.467 79.7333 228.933C59.3333 220.4 52.3999 194.667 65.7333 177.067C74.2666 166 89.0666 161.467 103.2 165.6ZM605.467 167.733C626.667 178.8 630.267 206.933 612.667 222.533C605.733 228.533 599.867 230.8 590.8 230.8C577.6 230.933 567.067 224.8 561.067 213.867C554.667 201.867 555.2 189.067 562.8 178.133C571.867 164.8 590.933 160.133 605.467 167.733ZM108.533 455.867C122.533 463.2 129.067 478.933 124.667 494.267C122.933 500.4 120.933 503.467 115.6 508.667C104.4 519.6 90.3999 521.867 77.1999 514.933C61.1999 506.667 54.2666 487.733 61.4666 472C69.9999 453.2 90.3999 446.133 108.533 455.867ZM603.467 454C610 456.667 617.467 464.133 620.8 471.333C628.4 487.6 621.733 506.4 605.467 514.933C592.267 521.867 578.267 519.6 567.067 508.667C555.067 496.933 553.2 482.133 561.867 467.733C570.4 453.467 587.867 447.733 603.467 454ZM357.467 599.467C368.8 605.733 374.667 615.733 374.667 628.933C374.533 664.4 326.133 675.467 311.2 643.333C302.4 624.533 312.4 602.267 332.533 596C339.333 594 349.867 595.467 357.467 599.467Z" fill="white"/>
<path d="M257.733 180.533C226.533 188.133 205.6 218.533 210.267 249.467C212 260.133 217.733 273.333 223.733 280.133L227.867 284.933L220.533 290C209.067 297.867 199.2 309.733 192.667 323.333C186.133 337.067 183.867 345.6 183.6 358.133C183.333 365.867 183.733 367.2 186.533 369.467C193.067 374.8 202.667 370.4 202.667 361.867C202.8 354.4 206.667 339.2 210.8 330.8C216 320.267 228.533 307.467 238.8 302.133L246.267 298.133L254.267 300.4C258.667 301.733 266.933 302.667 272.8 302.667H283.467L285.067 306.933C285.867 309.333 289.067 314.4 291.867 318.267L297.2 325.2L288.4 331.6C267.467 346.933 253.467 373.733 253.333 398.267C253.333 408 256 412 262.533 412C269.6 412 272.133 408.4 273.333 396.667C274.533 385.333 277.6 375.6 283.067 366.4C287.733 358.533 300.8 346.4 309.2 342C316.4 338.4 316.4 338.4 324 340.533C333.6 343.2 349.067 343.2 358.667 340.533C366.267 338.4 366.267 338.4 373.333 342C386.933 348.933 401.2 365.467 406 379.867C407.067 383.467 408.667 391.067 409.2 396.8C410.133 405.067 411.067 407.733 413.333 409.6C417.333 412.8 423.333 412.667 426.8 409.2C429.467 406.533 429.6 405.333 428.933 394.8C427.467 369.2 413.2 344.533 391.067 329.2L385.467 325.333L390.667 318.267C393.6 314.533 396.8 309.333 397.6 306.933L399.2 302.667H409.867C415.733 302.667 424 301.733 428.4 300.4L436.4 298.133L443.867 302.133C454.133 307.467 466.667 320.267 471.867 330.8C476 339.333 479.867 354.4 480 362.133C480 370.4 489.6 374.8 496.133 369.467C498.933 367.2 499.333 365.867 499.067 358.133C498.8 345.6 496.533 337.067 490 323.333C483.467 309.733 473.6 297.867 462.133 290L454.8 284.933L458.933 280.133C464.933 273.333 470.667 260.133 472.4 249.467C478.533 209.6 441.733 173.2 401.867 179.733C382.667 182.933 363.867 196.533 355.867 212.933L352.667 219.467H341.2H329.733L326.8 213.067C322.133 202.933 310.533 191.467 299.467 186C284.933 178.8 271.867 177.067 257.733 180.533ZM288.533 202.533C296.267 205.867 304.267 213.333 308.133 220.667C311.333 226.8 311.333 226.8 308.667 228.267C307.2 229.2 302.533 233.067 298.267 237.067C289.6 245.467 282 259.2 280.667 269.067C280.267 272.533 279.467 277.067 279.067 279.2L278.4 282.933L268.8 282.4C248.133 281.067 232.267 265.867 229.867 245.2C228.267 231.467 235.467 215.067 246.533 207.467C259.467 198.533 275.333 196.667 288.533 202.533ZM428.4 203.067C455.067 215.2 461.333 251.867 440 271.2C431.867 278.533 424.533 281.733 413.867 282.4L404.267 282.933L403.6 279.2C403.2 277.067 402.4 272.533 402 269.067C400.667 259.2 393.067 245.467 384.4 237.067C380.133 233.067 375.467 229.2 374 228.4C371.467 226.933 371.467 226.667 373.6 222.267C383.2 202.133 407.733 193.6 428.4 203.067ZM356.667 242.267C366 245.333 377.467 256.933 380.667 266.533C387.333 286.8 379.467 307.867 361.067 318.133C354.667 321.6 352.8 322 341.333 322C329.867 322 328 321.6 321.6 318.133C298.267 305.2 292.267 273.733 309.467 254.133C321.867 240 337.867 236 356.667 242.267Z" fill="white"/>
<path d="M392.133 445.333C385.2 448.267 383.2 455.867 388 461.067C390.667 463.867 392 464 410 464C427.6 464 429.6 463.733 432 461.333C435.333 458 435.467 451.867 432.133 447.867C429.733 444.8 428.667 444.667 412.4 444.4C403.067 444.133 393.867 444.667 392.133 445.333Z" fill="white"/>
<path d="M250.133 448.267C245.2 455.333 249.466 464 257.866 464C262.8 464 268 459.2 268 454.667C268 453.333 266.8 450.8 265.2 448.8C261.6 444.133 253.2 443.867 250.133 448.267Z" fill="white"/>
<path d="M284.8 448.267C279.867 455.333 284.133 464 292.533 464C297.467 464 302.667 459.2 302.667 454.667C302.667 453.333 301.467 450.8 299.867 448.8C296.267 444.133 287.867 443.867 284.8 448.267Z" fill="white"/>
<path d="M319.467 448.267C318.267 449.867 317.333 452.8 317.333 454.667C317.333 460.533 320.8 464 326.667 464C330.667 464 332.4 463.2 334.533 460.533C336.133 458.533 337.333 456 337.333 454.667C337.333 453.333 336.133 450.8 334.533 448.8C330.933 444.133 322.533 443.867 319.467 448.267Z" fill="white"/>
<path d="M250.933 487.067C246.8 491.467 247.066 497.733 251.466 501.2C254.933 504 256 504 341.333 504C426.666 504 427.733 504 431.2 501.2C435.733 497.6 436 490.933 431.6 486.933L428.533 484H341.2H253.733L250.933 487.067Z" fill="white"/>
</svg>
