<svg width="62" height="63" viewBox="0 0 62 63" fill="none" xmlns="http://www.w3.org/2000/svg">
<path d="M60.7002 0.900391H22.0002C21.3002 0.900391 20.7002 1.50039 20.7002 2.20039C20.7002 2.90039 21.3002 3.5004 22.0002 3.5004H59.4002V40.5004H22.0002C21.3002 40.5004 20.7002 41.1004 20.7002 41.8004C20.7002 42.5004 21.3002 43.1004 22.0002 43.1004H60.6002C61.3002 43.1004 61.9002 42.5004 61.9002 41.8004V2.20039C62.0002 1.50039 61.4002 0.900391 60.7002 0.900391Z" fill="black"/>
<path d="M12.9999 40.4002V34.0002C12.9999 33.3002 12.3999 32.7002 11.6999 32.7002C10.9999 32.7002 10.3999 33.3002 10.3999 34.0002V40.4002C10.3999 41.1002 10.9999 41.7002 11.6999 41.7002C12.3999 41.7002 12.9999 41.1002 12.9999 40.4002Z" fill="black"/>
<path d="M22.0001 30.2004C22.7001 30.2004 23.3001 29.6004 23.3001 28.9004V25.1004H35.0001C35.7001 25.1004 36.3001 24.5004 36.3001 23.8004V18.7004C36.3001 18.0004 35.7001 17.4004 35.0001 17.4004H20.3001C19.2001 16.2004 17.9001 15.2004 16.4001 14.6004C18.2001 13.2004 19.4001 11.0004 19.4001 8.5004C19.4001 4.3004 16.0001 0.900391 11.7001 0.900391C7.50009 0.900391 4.00009 4.3004 4.00009 8.5004C4.00009 11.0004 5.20009 13.2004 7.00009 14.6004C3.00009 16.4004 0.100098 20.4004 0.100098 25.1004V29.0004C0.100098 29.7004 0.700085 30.3004 1.40009 30.3004H5.1001V40.5004C5.1001 41.2004 5.70009 41.8004 6.40009 41.8004C7.10009 41.8004 7.70009 41.2004 7.70009 40.5004V25.1004C7.70009 24.4004 7.10009 23.8004 6.40009 23.8004C5.70009 23.8004 5.1001 24.4004 5.1001 25.1004V27.6004H2.6001V25.1004C2.6001 20.2004 6.6001 16.2004 11.6001 16.2004C14.3001 16.2004 17.0001 17.4004 18.7001 19.5004C18.9001 19.8004 19.3001 20.0004 19.7001 20.0004H33.5001V22.5004H21.9001C21.1001 22.5004 20.5001 23.2004 20.6001 23.9004C20.6001 24.3004 20.7001 24.7004 20.7001 25.0004V27.5004H18.2001V25.0004C18.2001 24.3004 17.6001 23.7004 16.9001 23.7004C16.2001 23.7004 15.6001 24.3004 15.6001 25.0004V40.3004C15.6001 41.0004 16.2001 41.6004 16.9001 41.6004C17.6001 41.6004 18.2001 41.0004 18.2001 40.3004V30.2004H22.0001ZM6.6001 8.6004C6.6001 5.8004 8.90009 3.5004 11.8001 3.5004C14.6001 3.5004 17.0001 5.8004 17.0001 8.6004C17.0001 11.4004 14.7001 13.7004 11.8001 13.7004C8.90009 13.7004 6.6001 11.4004 6.6001 8.6004Z" fill="black"/>
<path d="M24.6001 36.6008C24.6001 37.3008 25.2001 37.9008 25.9001 37.9008H53.0001C53.7001 37.9008 54.3001 37.3008 54.3001 36.6008C54.3001 35.9008 53.7001 35.3008 53.0001 35.3008H25.9001C25.2001 35.3008 24.6001 35.9008 24.6001 36.6008Z" fill="black"/>
<path d="M29.7002 7.30078H27.2002V9.80078H29.7002V7.30078Z" fill="black"/>
<path d="M38.7002 7.30078H36.2002V9.80078H38.7002V7.30078Z" fill="black"/>
<path d="M47.7002 7.30078H45.2002V9.80078H47.7002V7.30078Z" fill="black"/>
<path d="M11.6001 52.8002C12.5001 51.9002 13.0001 50.7002 13.0001 49.3002C13.0001 46.5002 10.7001 44.2002 7.80009 44.2002C5.00009 44.2002 2.6001 46.5002 2.6001 49.3002C2.6001 50.7002 3.10009 51.9002 4.00009 52.8002C1.60009 54.1002 0.100098 56.6002 0.100098 59.5002V60.8002C0.100098 61.5002 0.700085 62.1002 1.40009 62.1002H14.2001C14.9001 62.1002 15.5001 61.5002 15.5001 60.8002V59.5002C15.6001 56.7002 13.9001 54.2002 11.6001 52.8002ZM5.20009 49.3002C5.20009 47.9002 6.30009 46.8002 7.70009 46.8002C9.10009 46.8002 10.2001 47.9002 10.2001 49.3002C10.2001 50.7002 9.10009 51.8002 7.70009 51.8002C6.50009 51.9002 5.20009 50.7002 5.20009 49.3002ZM2.70009 59.5002C2.70009 56.7002 5.00009 54.4002 7.90009 54.4002C10.7001 54.4002 13.1001 56.7002 13.1001 59.5002H2.70009Z" fill="black"/>
<path d="M34.8002 52.8002C35.7002 51.9002 36.2002 50.7002 36.2002 49.3002C36.2002 46.5002 33.9002 44.2002 31.0002 44.2002C28.2002 44.2002 25.8002 46.5002 25.8002 49.3002C25.8002 50.7002 26.3002 51.9002 27.2002 52.8002C24.8002 54.1002 23.2002 56.6002 23.2002 59.5002V60.8002C23.2002 61.5002 23.8002 62.1002 24.5002 62.1002H37.3002C38.0002 62.1002 38.6002 61.5002 38.6002 60.8002V59.5002C38.7002 56.7002 37.1002 54.2002 34.8002 52.8002ZM28.5002 49.3002C28.5002 47.9002 29.6002 46.8002 31.0002 46.8002C32.4002 46.8002 33.5002 47.9002 33.5002 49.3002C33.5002 50.7002 32.4002 51.8002 31.0002 51.8002C29.6002 51.8002 28.5002 50.7002 28.5002 49.3002ZM25.9002 59.5002C25.9002 56.7002 28.2002 54.4002 31.1002 54.4002C33.9002 54.4002 36.3002 56.7002 36.3002 59.5002H25.9002Z" fill="black"/>
<path d="M57.9001 52.8002C58.8001 51.9002 59.3002 50.7002 59.3002 49.3002C59.3002 46.5002 57.0002 44.2002 54.1002 44.2002C51.3002 44.2002 48.9001 46.5002 48.9001 49.3002C48.9001 50.7002 49.4002 51.9002 50.3002 52.8002C47.9002 54.1002 46.4001 56.6002 46.4001 59.5002V60.8002C46.4001 61.5002 47.0001 62.1002 47.7001 62.1002H60.5002C61.2002 62.1002 61.8002 61.5002 61.8002 60.8002V59.5002C62.0002 56.7002 60.4001 54.2002 57.9001 52.8002ZM51.7001 49.3002C51.7001 47.9002 52.8001 46.8002 54.2001 46.8002C55.6001 46.8002 56.7001 47.9002 56.7001 49.3002C56.7001 50.7002 55.6001 51.8002 54.2001 51.8002C52.8001 51.9002 51.7001 50.7002 51.7001 49.3002ZM49.0002 59.5002C49.0002 56.7002 51.3001 54.4002 54.2001 54.4002C57.0001 54.4002 59.4001 56.7002 59.4001 59.5002H49.0002Z" fill="black"/>
</svg>
