<svg width="63" height="63" viewBox="0 0 63 63" fill="none" xmlns="http://www.w3.org/2000/svg">
<path d="M18.4999 17.8999C21.4999 16.4999 23.7999 13.3999 23.7999 9.79987C23.7999 4.89987 19.7999 0.899902 14.7999 0.899902C9.79993 0.899902 5.79993 4.89987 5.79993 9.79987C5.79993 13.3999 7.89995 16.4999 11.0999 17.8999C5.09995 19.2999 0.699951 23.9999 0.699951 29.5999V40.3999C0.699951 41.0999 1.29994 41.6999 1.99994 41.6999H7.19995V60.7999C7.19995 61.4999 7.79994 62.0999 8.49994 62.0999C9.19994 62.0999 9.79993 61.4999 9.79993 60.7999V36.5999C9.79993 35.8999 9.19994 35.2999 8.49994 35.2999C7.79994 35.2999 7.19995 35.8999 7.19995 36.5999V39.0999H3.39993V29.4999C3.39993 24.1999 8.59994 19.8999 14.9999 19.8999C21.3999 19.8999 26.5999 24.1999 26.5999 29.4999V39.0999H22.7999V36.5999C22.7999 35.8999 22.1999 35.2999 21.4999 35.2999C20.7999 35.2999 20.2 35.8999 20.2 36.5999V60.7999C20.2 61.4999 20.7999 62.0999 21.4999 62.0999C22.1999 62.0999 22.7999 61.4999 22.7999 60.7999V41.6999H27.9999C28.6999 41.6999 29.2999 41.0999 29.2999 40.3999V29.5999C28.9999 23.9999 24.4999 19.2999 18.4999 17.8999ZM8.29993 9.79987C8.29993 6.29987 11.1999 3.3999 14.7999 3.3999C18.2999 3.3999 21.2999 6.29987 21.2999 9.79987C21.2999 13.2999 18.3999 16.1999 14.7999 16.1999C11.1999 16.1999 8.29993 13.2999 8.29993 9.79987Z" fill="black"/>
<path d="M14.6999 45.5C13.9999 45.5 13.3999 46.1 13.3999 46.8V60.8C13.3999 61.5 13.9999 62.1 14.6999 62.1C15.3999 62.1 15.9999 61.5 15.9999 60.8V46.8C15.9999 46.1 15.3999 45.5 14.6999 45.5Z" fill="black"/>
<path d="M16 29H13.5V31.5H16V29Z" fill="black"/>
<path d="M47 31.5C38.5 31.5 31.5 38.4 31.5 46.8C31.5 55.2 38.5 62.1 47 62.1C55.5 62.1 62.5 55.2 62.5 46.8C62.4 38.4 55.5 31.5 47 31.5ZM47 59.5C39.9 59.5 34.2 53.8 34.2 46.8C34.2 39.8 40 34.1 47 34.1C54.1 34.1 59.8 39.8 59.8 46.8C59.8 53.8 54.1 59.5 47 59.5Z" fill="black"/>
<path d="M49.3999 41.7C49.4999 41.7 49.4999 41.8 49.4999 41.8C49.4999 42.5 50.0999 43.1 50.7999 43.1C51.4999 43.1 52.0999 42.5 52.0999 41.8C52.0999 40.3 50.8999 39.1 49.3999 39.1H48.2999V37.8C48.2999 37.1 47.6999 36.5 46.9999 36.5C46.2999 36.5 45.6999 37.1 45.6999 37.8V39.1H44.5999C43.0999 39.1 41.8999 40.3 41.8999 41.8V45.3C41.8999 46.7 42.9999 47.9 44.4999 48C44.5999 48 44.5999 48 45.7999 48V51.8H44.6999C44.5999 51.8 44.5999 51.7 44.5999 51.7C44.5999 51 43.9999 50.4 43.2999 50.4C42.5999 50.4 41.9999 51 41.9999 51.7C41.9999 53.2 43.1999 54.4 44.6999 54.4H45.7999V55.7C45.7999 56.4 46.3999 57 47.0999 57C47.7999 57 48.3999 56.4 48.3999 55.7V54.4H49.4999C50.9999 54.4 52.1999 53.2 52.1999 51.7V48.2C52.1999 46.8 51.0999 45.6 49.5999 45.5C49.4999 45.5 49.4999 45.5 48.2999 45.5V41.7H49.3999ZM49.3999 48.1C49.4999 48.1 49.4999 48.2 49.4999 48.2V51.7C49.4999 51.8 49.3999 51.8 49.3999 51.8H48.2999V48L49.3999 48.1ZM45.6999 45.5H44.5999C44.4999 45.5 44.4999 45.4 44.4999 45.4V41.9C44.4999 41.8 44.5999 41.8 44.5999 41.8H45.6999V45.5Z" fill="black"/>
<path d="M37.9999 9.79968H55.9999C56.6999 9.79968 57.2999 9.19969 57.2999 8.49969C57.2999 7.79969 56.6999 7.19971 55.9999 7.19971H37.9999C37.2999 7.19971 36.7 7.79969 36.7 8.49969C36.7 9.29969 37.2999 9.79968 37.9999 9.79968Z" fill="black"/>
<path d="M37.9999 17.4999H50.7999C51.4999 17.4999 52.0999 16.8999 52.0999 16.1999C52.0999 15.4999 51.4999 14.8999 50.7999 14.8999H37.9999C37.2999 14.8999 36.7 15.4999 36.7 16.1999C36.7 16.8999 37.2999 17.4999 37.9999 17.4999Z" fill="black"/>
<path d="M37.9999 25.1H55.9999C56.6999 25.1 57.2999 24.5 57.2999 23.8C57.2999 23.1 56.6999 22.5 55.9999 22.5H37.9999C37.2999 22.5 36.7 23.1 36.7 23.8C36.7 24.6 37.2999 25.1 37.9999 25.1Z" fill="black"/>
</svg>
