<svg width="59" height="56" viewBox="0 0 59 56" fill="none" xmlns="http://www.w3.org/2000/svg">
<path d="M54.6 13.9998H51.1C50.4 13.9998 49.8 14.5998 49.8 15.2998V16.5998H46V15.2998C46 14.5998 45.4 13.9998 44.7 13.9998H39.6V11.3998C39.6 9.59981 38.2 7.9998 36.5 7.7998V3.39981C36.5 1.69981 35.1 0.299805 33.4 0.299805C32.7 0.299805 32 0.499811 31.5 0.899811C30.4 0.0998108 28.9 0.0998108 27.7 0.899811C27.2 0.499811 26.5 0.299805 25.8 0.299805C24.1 0.299805 22.7 1.69981 22.7 3.39981V7.7998C20.9 8.0998 19.6 9.59981 19.6 11.3998V13.9998H14.5C13.8 13.9998 13.2 14.5998 13.2 15.2998V16.5998H9.60004V15.2998C9.60004 14.5998 9.00005 13.9998 8.30005 13.9998H4.80005C2.60005 13.9998 0.800049 15.7998 0.800049 17.9998V51.2998C0.800049 53.4998 2.60005 55.2998 4.80005 55.2998H55C57.2 55.2998 59 53.4998 59 51.2998V17.9998C58.7 15.7998 56.9 13.9998 54.6 13.9998ZM33.4 2.7998C33.7 2.7998 34 3.09981 34 3.39981C34 5.19981 34 7.69983 34 9.69983C34 9.99983 33.7 10.2998 33.4 10.2998C33.1 10.2998 32.8 9.99983 32.8 9.69983V3.39981C32.7 2.99981 33 2.7998 33.4 2.7998ZM29.6 2.7998C29.9 2.7998 30.2 3.09981 30.2 3.39981V9.69983C30.2 9.99983 29.9 10.2998 29.6 10.2998C29.3 10.2998 29 9.99983 29 9.69983V3.39981C29 2.99981 29.3 2.7998 29.6 2.7998ZM25.1 3.39981C25.1 3.09981 25.4 2.7998 25.7 2.7998C26 2.7998 26.3 3.09981 26.3 3.39981V9.69983C26.3 9.99983 26 10.2998 25.7 10.2998C25.4 10.2998 25.1 9.99983 25.1 9.69983C25.1 7.69983 25.1 5.09981 25.1 3.39981ZM22 11.3998C22 10.8998 22.3 10.4998 22.7 10.2998C23.2 12.3998 25.6 13.3998 27.5 12.1998C27.6 12.0998 27.7 12.0998 27.7 12.0998C27.7 12.0998 28.3 12.5998 29.3 12.6998C30.6 12.7998 31.4 12.0998 31.4 12.0998C31.7 12.2998 31.9 12.3998 32.2 12.5998C33.9 13.1998 35.8 12.1998 36.3 10.3998C36.7001 10.5998 37 10.9998 37 11.4998V13.9998H21.8V11.3998H22ZM4.50003 16.4998H6.80005V17.7998C6.80005 18.4998 7.40004 19.0998 8.10004 19.0998H14.4C15.1 19.0998 15.7 18.4998 15.7 17.7998V16.4998C16.5 16.4998 41.2 16.4998 43.5 16.4998V17.7998C43.5 18.4998 44.1 19.0998 44.8 19.0998H51.2C51.9 19.0998 52.5 18.4998 52.5 17.7998V16.4998H54.8C55.6 16.4998 56.3 17.1998 56.3 17.9998V28.9998H53.8V27.6998C53.8 26.9998 53.2 26.3998 52.5 26.3998H41C40.3 26.3998 39.7 26.9998 39.7 27.6998V28.9998C37.3 28.9998 23 28.9998 20.7 28.9998V27.6998C20.7 26.9998 20.1 26.3998 19.4 26.3998H8.10004C7.40004 26.3998 6.80005 26.9998 6.80005 27.6998V28.9998H3.00003V17.9998C3.10003 17.1998 3.70003 16.4998 4.50003 16.4998ZM42.2 28.9998H51.1V31.4998H42.2V28.9998ZM28.3 37.7998H32.1V40.8998C32.1 41.8998 31.3 42.7998 30.2 42.7998C29.1 42.7998 28.3 41.9998 28.3 40.8998V37.7998ZM25.5 35.2998L24.7 31.4998H35.6L34.8 35.2998C28.1 35.2998 30.8 35.2998 25.5 35.2998ZM9.30005 28.9998H18.2V31.4998H9.30005V28.9998ZM54.6 52.7998H4.40002C3.60002 52.7998 2.90002 52.0998 2.90002 51.2998V50.2998H21.9C22.6 50.2998 23.2 49.6998 23.2 48.9998C23.2 48.2998 22.6 47.6998 21.9 47.6998H3.10004V31.4998H6.90002V32.7998C6.90002 33.4998 7.50004 34.0998 8.20004 34.0998H19.4C20.1 34.0998 20.7 33.4998 20.7 32.7998V31.4998H22.2L23.2 36.6998C23.3 37.2998 23.8 37.6998 24.4 37.6998H25.7V40.7998C25.7 43.1998 27.7 45.1998 30.2 45.1998C32.6 45.1998 34.7 43.1998 34.7 40.7998V37.6998H36C36.6 37.6998 37.1 37.2998 37.2 36.6998L38.2 31.4998H39.6V32.7998C39.6 33.4998 40.2 34.0998 40.9 34.0998H52.3C53 34.0998 53.6 33.4998 53.6 32.7998V31.4998H56.1V47.7998H39.5C38.8 47.7998 38.2 48.3998 38.2 49.0998C38.2 49.7998 38.8 50.3998 39.5 50.3998H56V51.3998C56.2 52.0998 55.5 52.7998 54.6 52.7998Z" fill="black"/>
</svg>
