<svg width="63" height="63" viewBox="0 0 63 63" fill="none" xmlns="http://www.w3.org/2000/svg">
<path d="M16.3 14.5999C18.1 13.1999 19.3 10.9999 19.3 8.49991C19.3 4.29991 15.9 0.899902 11.6 0.899902C7.40001 0.899902 3.89999 4.29991 3.89999 8.49991C3.89999 10.9999 5.09999 13.1999 6.89999 14.5999C2.89999 16.3999 0 20.3999 0 25.0999V39.0999C0 39.7999 0.599988 40.3999 1.29999 40.3999H5V60.7999C5 61.4999 5.59999 62.0999 6.29999 62.0999C6.99999 62.0999 7.60001 61.4999 7.60001 60.7999V35.2999C7.60001 34.5999 6.99999 33.9999 6.29999 33.9999C5.59999 33.9999 5 34.5999 5 35.2999V37.7999H2.5V25.0999C2.5 20.1999 6.5 16.1999 11.5 16.1999C16.5 16.1999 20.5 20.1999 20.5 25.0999V37.7999H18V35.2999C18 34.5999 17.4 33.9999 16.7 33.9999C16 33.9999 15.4 34.5999 15.4 35.2999V60.7999C15.4 61.4999 16 62.0999 16.7 62.0999C17.4 62.0999 18 61.4999 18 60.7999V40.3999H21.8C22.5 40.3999 23.1 39.7999 23.1 39.0999V25.0999C23.3 20.4999 20.3 16.3999 16.3 14.5999ZM6.5 8.59991C6.5 5.79991 8.80001 3.49991 11.7 3.49991C14.5 3.49991 16.9 5.79991 16.9 8.59991C16.9 11.3999 14.6 13.6999 11.7 13.6999C8.80001 13.6999 6.5 11.3999 6.5 8.59991Z" fill="black"/>
<path d="M11.6001 40.3999C10.9001 40.3999 10.3 40.9999 10.3 41.6999V60.7999C10.3 61.4999 10.9001 62.0999 11.6001 62.0999C12.3001 62.0999 12.9001 61.4999 12.9001 60.7999V41.6999C12.9001 40.9999 12.3001 40.3999 11.6001 40.3999Z" fill="black"/>
<path d="M12.8 23.8999H10.3V26.3999H12.8V23.8999Z" fill="black"/>
<path d="M57.0001 23.8999C55.6001 23.8999 54.2001 24.3999 53.2001 25.4999L49.5001 27.6999H42.7001C40.6001 27.6999 38.9001 29.3999 38.9001 31.4999C38.9001 31.8999 39.0001 32.3999 39.1001 32.7999H29.9001C29.2001 32.7999 28.6001 33.3999 28.6001 34.0999C28.6001 34.7999 29.2001 35.3999 29.9001 35.3999H31.2001V60.8999C31.2001 61.5999 31.8001 62.1999 32.5001 62.1999C33.2001 62.1999 33.8001 61.5999 33.8001 60.8999V35.2999C35.6001 35.2999 48.8001 35.2999 50.6001 35.2999C51.0001 35.2999 51.5001 35.1999 51.9001 35.0999V41.6999H48.1001C47.1001 41.6999 46.1001 42.0999 45.4001 42.7999C45.3001 42.8999 45.9001 42.0999 35.7001 56.1999C35.3001 56.7999 35.4001 57.5999 36.0001 57.9999C36.6001 58.3999 37.4001 58.2999 37.8001 57.6999L47.3001 44.4999C47.5001 44.2999 47.8001 44.1999 48.1001 44.1999H53.3001C54.0001 44.1999 54.6001 43.5999 54.6001 42.8999V32.8999C54.6001 32.3999 54.4001 31.9999 54.0001 31.7999C53.6001 31.5999 53.1001 31.5999 52.7001 31.7999L51.5001 32.4999C51.3001 32.5999 51.1001 32.6999 50.8001 32.6999C49.9001 32.6999 44.0001 32.6999 43.1001 32.6999C42.4001 32.6999 41.8001 32.0999 41.8001 31.3999C41.8001 30.6999 42.4001 30.0999 43.1001 30.0999H50.1001C50.3001 30.0999 50.6001 29.9999 50.8001 29.8999L55.0001 27.3999C55.1001 27.2999 55.2001 27.1999 55.3001 27.0999C55.8001 26.4999 56.5001 26.1999 57.3001 26.1999C58.7001 26.2999 59.8001 27.3999 59.8001 28.6999V43.9999C59.8001 45.3999 58.7001 46.4999 57.3001 46.4999H49.3001C48.9001 46.4999 48.5001 46.6999 48.3001 46.9999L39.5001 59.4999C39.1001 60.0999 39.2001 60.8999 39.8001 61.2999C40.4001 61.6999 41.2001 61.5999 41.6001 60.9999L50.0001 48.9999H56.9001C59.7001 48.9999 62.1001 46.6999 62.1001 43.8999V28.9999C61.9001 26.1999 59.8001 23.9999 57.0001 23.8999Z" fill="black"/>
<path d="M55.3999 22.5998C58.8999 22.5998 61.8999 19.6998 61.8999 16.1998C61.8999 12.6998 58.9999 9.7998 55.3999 9.7998C51.8999 9.7998 48.8999 12.6998 48.8999 16.1998C48.9999 19.6998 51.8999 22.5998 55.3999 22.5998ZM55.3999 12.3998C57.4999 12.3998 59.1999 14.0998 59.1999 16.1998C59.1999 18.2998 57.4999 19.9998 55.3999 19.9998C53.2999 19.9998 51.5999 18.2998 51.5999 16.1998C51.5999 14.0998 53.2999 12.3998 55.3999 12.3998Z" fill="black"/>
<path d="M42.6001 9.79991C42.6001 4.89991 38.6001 0.899902 33.6001 0.899902C28.6001 0.899902 24.6001 4.89991 24.6001 9.79991C24.6001 14.6999 28.6001 18.6999 33.6001 18.6999C38.5001 18.6999 42.6001 14.7999 42.6001 9.79991ZM27.1001 9.79991C27.1001 6.29991 30.0001 3.3999 33.6001 3.3999C37.1001 3.3999 40.1001 6.29991 40.1001 9.79991C40.1001 13.2999 37.2001 16.1999 33.6001 16.1999C29.9001 16.1999 27.1001 13.2999 27.1001 9.79991Z" fill="black"/>
<path d="M36.9999 13.2997C37.4999 12.7997 37.4999 11.9997 36.9999 11.4997L34.7999 9.29971V5.99971C34.7999 5.29971 34.1999 4.69971 33.4999 4.69971C32.7999 4.69971 32.2 5.29971 32.2 5.99971V9.79971C32.2 10.0997 32.2999 10.4997 32.5999 10.6997L35.0999 13.1997C35.6999 13.7997 36.4999 13.7997 36.9999 13.2997Z" fill="black"/>
</svg>
