<svg width="59" height="57" viewBox="0 0 59 57" fill="none" xmlns="http://www.w3.org/2000/svg">
<path d="M20.3998 22.8996C20.5998 23.0996 20.8998 23.1996 21.2998 23.1996H37.9998C38.2998 23.1996 38.5998 23.0996 38.8998 22.8996C45.4998 16.7996 44.0998 6.2996 36.4998 1.8996C36.3998 1.7996 36.3998 1.79961 36.2998 1.79961C34.2998 0.699606 32.0998 0.0996094 29.5998 0.0996094C27.2998 0.0996094 24.8998 0.699597 22.8998 1.8996C22.8998 1.8996 22.7998 1.8996 22.7998 1.9996C15.1998 6.2996 13.8998 16.7996 20.3998 22.8996ZM23.0998 4.6996L23.8998 6.1996C24.0998 6.5996 24.5998 6.79961 24.9998 6.79961C25.8998 6.79961 26.5998 5.7996 26.0998 4.8996L25.2998 3.3996C26.1998 2.9996 27.1998 2.69961 28.2998 2.59961V4.29961C28.2998 4.99961 28.8998 5.59961 29.5998 5.59961C30.2998 5.59961 30.8998 4.99961 30.8998 4.29961V2.59961C31.9998 2.69961 32.9998 2.9996 33.8998 3.3996L33.0998 4.8996C32.7998 5.4996 32.9998 6.29961 33.5998 6.59961C34.1998 6.89961 34.9998 6.69961 35.2998 6.09961L36.0998 4.59961C36.8998 5.19961 37.6998 5.99961 38.2998 6.79961L36.7998 7.59961C36.1998 7.89961 35.9998 8.69961 36.2998 9.29961C36.5998 9.89961 37.3998 10.0996 37.9998 9.79961L39.4998 8.9996C39.8998 9.8996 40.1998 10.8996 40.2998 11.9996H38.4998C37.7998 11.9996 37.1998 12.5996 37.1998 13.2996C37.1998 13.9996 37.7998 14.5996 38.4998 14.5996H40.1998C40.0998 15.6996 39.7998 16.6996 39.3998 17.6996L37.8998 16.7996C37.2998 16.4996 36.4998 16.6996 36.1998 17.2996C35.8998 17.8996 36.0998 18.6996 36.6998 18.9996L38.1998 19.8996C37.8998 20.2996 37.5998 20.5996 37.2998 20.8996H21.5998C21.2998 20.5996 20.9998 20.1996 20.6998 19.8996L22.1998 18.9996C22.7998 18.6996 22.9998 17.8996 22.6998 17.2996C22.3998 16.6996 21.5998 16.4996 20.9998 16.7996L19.4998 17.6996C19.0998 16.6996 18.7998 15.6996 18.6998 14.5996H20.2998C20.9998 14.5996 21.5998 13.9996 21.5998 13.2996C21.5998 12.5996 20.9998 11.9996 20.2998 11.9996H18.5998C18.6998 10.9996 18.9998 9.9996 19.3998 8.9996L20.8998 9.79961C21.4998 10.0996 22.2998 9.89961 22.5998 9.29961C22.8998 8.69961 22.6998 7.89961 22.0998 7.59961L20.5998 6.79961C21.4998 5.99961 22.2998 5.2996 23.0998 4.6996Z" fill="black"/>
<path d="M29.6 16.1996C31.2 16.1996 32.5 14.8996 32.5 13.2996C32.5 12.0996 31.8 11.0996 30.8 10.5996V8.3996C30.8 7.6996 30.2 7.09961 29.5 7.09961C28.8 7.09961 28.2 7.6996 28.2 8.3996V10.5996C27.2 11.0996 26.5 12.0996 26.5 13.1996C26.6 14.8996 27.9 16.1996 29.6 16.1996ZM29.6 13.6996C29.4 13.6996 29.2 13.4996 29.2 13.2996C29.2 13.0996 29.4 12.8996 29.6 12.8996C29.8 12.8996 30 13.0996 30 13.2996C30 13.4996 29.8 13.6996 29.6 13.6996Z" fill="black"/>
<path d="M14.4 51.9992C14.4 51.2992 13.8 50.6992 13.1 50.6992H1.80002C1.10002 50.6992 0.5 51.2992 0.5 51.9992C0.5 52.6992 1.10002 53.2992 1.80002 53.2992H13.2C13.8 53.2992 14.4 52.6992 14.4 51.9992Z" fill="black"/>
<path d="M1.69992 49.4994H6.79993C7.49993 49.4994 8.09991 48.8994 8.09991 48.1994C8.09991 47.4994 7.49993 46.8994 6.79993 46.8994H1.69992C0.999921 46.8994 0.399902 47.4994 0.399902 48.1994C0.499902 48.8994 0.999921 49.4994 1.69992 49.4994Z" fill="black"/>
<path d="M57.3998 50.7998H46.0998C45.3998 50.7998 44.7998 51.3998 44.7998 52.0998C44.7998 52.7998 45.3998 53.3998 46.0998 53.3998H57.4998C58.1998 53.3998 58.7998 52.7998 58.7998 52.0998C58.6998 51.2998 58.0998 50.7998 57.3998 50.7998Z" fill="black"/>
<path d="M57.4 47H52.3C51.6 47 51 47.6 51 48.3C51 49 51.6 49.6 52.3 49.6H57.4C58.1 49.6 58.7 49 58.7 48.3C58.7 47.6 58.1 47 57.4 47Z" fill="black"/>
<path d="M54.2999 6.99942H44.6999C43.9999 6.99942 43.3998 7.59942 43.3998 8.29942C43.3998 8.99942 43.9999 9.59943 44.6999 9.59943H54.2999C55.1999 9.59943 55.9998 10.3994 55.9998 11.2994V34.5994H15.4998C14.7998 34.5994 14.1999 35.1994 14.1999 35.8994C14.1999 36.5994 14.7998 37.1994 15.4998 37.1994H56.0999V40.9994C56.0999 41.8994 55.2998 42.6994 54.3998 42.6994C52.0998 42.6994 7.09986 42.6994 4.69986 42.6994C3.79986 42.6994 2.99985 41.8994 2.99985 40.9994V36.9994H10.2999C10.9999 36.9994 11.4998 36.3994 11.4998 35.6994C11.4998 34.9994 10.8999 34.3994 10.2999 34.3994H2.99985V11.1994C2.99985 10.2994 3.79986 9.49942 4.69986 9.49942H14.3998C15.0998 9.49942 15.6999 8.89942 15.6999 8.19942C15.6999 7.49942 15.0998 6.89941 14.3998 6.89941H4.79987C2.49987 6.89941 0.599854 8.79943 0.599854 11.0994V40.6994C0.599854 42.9994 2.49987 44.8994 4.79987 44.8994H20.6999L17.8998 54.3994H12.6999C11.9999 54.3994 11.3998 54.9994 11.3998 55.6994C11.3998 56.3994 11.9999 56.9994 12.6999 56.9994C13.4999 56.9994 43.4999 56.9994 44.2999 56.9994C44.9999 56.9994 45.5999 56.3994 45.5999 55.6994C45.5999 54.9994 44.9999 54.3994 44.2999 54.3994H39.0999L36.2999 44.9994H54.4998C56.7998 44.9994 58.6999 43.0994 58.6999 40.7994V11.1994C58.6999 8.89942 56.7999 6.99942 54.2999 6.99942ZM36.3998 54.4994H20.3998L23.1999 44.9994H33.4998L36.3998 54.4994Z" fill="black"/>
<path d="M6.80002 15.7992H10.6C11.3 15.7992 11.9 15.1992 11.9 14.4992C11.9 13.7992 11.3 13.1992 10.6 13.1992H6.80002C6.10002 13.1992 5.5 13.7992 5.5 14.4992C5.6 15.1992 6.10002 15.7992 6.80002 15.7992Z" fill="black"/>
<path d="M6.80002 19.4994H11.9C12.6 19.4994 13.2 18.8994 13.2 18.1994C13.2 17.4994 12.6 16.8994 11.9 16.8994H6.80002C6.10002 16.8994 5.5 17.4994 5.5 18.1994C5.6 18.8994 6.10002 19.4994 6.80002 19.4994Z" fill="black"/>
<path d="M6.80002 23.2992H13.2C13.9 23.2992 14.5 22.6992 14.5 21.9992C14.5 21.2992 13.9 20.6992 13.2 20.6992H6.80002C6.10002 20.6992 5.5 21.2992 5.5 21.9992C5.6 22.6992 6.10002 23.2992 6.80002 23.2992Z" fill="black"/>
<path d="M6.80002 26.9994H14.4C15.1 26.9994 15.7 26.3994 15.7 25.6994C15.7 24.9994 15.1 24.3994 14.4 24.3994H6.80002C6.10002 24.3994 5.5 24.9994 5.5 25.6994C5.6 26.3994 6.10002 26.9994 6.80002 26.9994Z" fill="black"/>
<path d="M52.3 15.7992C53 15.7992 53.5999 15.1992 53.5999 14.4992C53.5999 13.7992 53 13.1992 52.3 13.1992H48.4999C47.7999 13.1992 47.2 13.7992 47.2 14.4992C47.2 15.1992 47.7999 15.7992 48.4999 15.7992H52.3Z" fill="black"/>
<path d="M46 18.3C46 19 46.6 19.6 47.3 19.6H52.4C53.1 19.6 53.7 19 53.7 18.3C53.7 17.6 53.1 17 52.4 17H47.3C46.6 17 46 17.6 46 18.3Z" fill="black"/>
<path d="M44.7 21.9992C44.7 22.6992 45.2999 23.2992 45.9999 23.2992H52.3999C53.0999 23.2992 53.7 22.6992 53.7 21.9992C53.7 21.2992 53.0999 20.6992 52.3999 20.6992H45.9999C45.2999 20.7992 44.7 21.2992 44.7 21.9992Z" fill="black"/>
<path d="M43.5 25.8C43.5 26.5 44.1 27.1 44.8 27.1H52.4C53.1 27.1 53.7 26.5 53.7 25.8C53.7 25.1 53.1 24.5 52.4 24.5H44.7C44 24.5 43.5 25.1 43.5 25.8Z" fill="black"/>
<path d="M28.3 38.2998C29 38.2998 29.6 38.8998 29.6 39.5998C29.6 40.2998 29 40.8998 28.3 40.8998C27.6 40.8998 27 40.2998 27 39.5998C27 38.8998 27.6 38.2998 28.3 38.2998Z" fill="black"/>
</svg>
