<svg width="61" height="59" viewBox="0 0 61 59" fill="none" xmlns="http://www.w3.org/2000/svg">
<path d="M10.2997 25.3C11.9997 25.3 13.3997 23.9 13.3997 22.2C13.3997 20.5 11.9997 19 10.2997 19C8.59968 19 7.19971 20.4 7.19971 22.1C7.19971 23.8 8.59968 25.3 10.2997 25.3ZM10.2997 21.5C10.5997 21.5 10.8997 21.8 10.8997 22.1C10.8997 22.4 10.5997 22.7 10.2997 22.7C9.99968 22.7 9.69971 22.5 9.69971 22.1C9.69971 21.8 9.99968 21.5 10.2997 21.5Z" fill="black"/>
<path d="M3.99988 46.5C2.29988 46.5 0.899902 47.9 0.899902 49.6C0.899902 51.3 2.29988 52.7 3.99988 52.7C5.69988 52.7 7.09985 51.3 7.09985 49.6C7.19985 47.9 5.69988 46.5 3.99988 46.5ZM3.99988 50.3C3.69988 50.3 3.3999 50 3.3999 49.7C3.3999 49.4 3.69988 49.1 3.99988 49.1C4.29988 49.1 4.59985 49.4 4.59985 49.7C4.59985 50 4.29988 50.3 3.99988 50.3Z" fill="black"/>
<path d="M56.4997 29C54.3997 29 52.6997 30.7 52.6997 32.8C52.6997 34.9 54.3997 36.6 56.4997 36.6C58.5997 36.6 60.2997 34.9 60.2997 32.8C60.3997 30.7 58.4997 29 56.4997 29ZM56.4997 34C55.7997 34 55.1997 33.4 55.1997 32.7C55.1997 32 55.7997 31.4 56.4997 31.4C57.1997 31.4 57.7997 32 57.7997 32.7C57.7997 33.4 57.0997 34 56.4997 34Z" fill="black"/>
<path d="M44.5 10.3C46.9 10.3 49 8.29999 49 5.89999C49 3.49999 47 1.5 44.5 1.5C42.1 1.5 40 3.49999 40 5.89999C40 8.29999 42.1 10.3 44.5 10.3ZM44.5 4C45.5 4 46.4 4.79999 46.4 5.89999C46.4 6.99999 45.6 7.8 44.5 7.8C43.4 7.8 42.6 6.99999 42.6 5.89999C42.6 4.79999 43.4 4 44.5 4Z" fill="black"/>
<path d="M17.3 44.0002C17.3 44.7002 17.9 45.3002 18.6 45.3002H24C24.8 47.5002 26.9 49.1002 29.5 49.1002C31.9 49.1002 34.1 47.5002 34.8 45.3002H40.2C40.9 45.3002 41.5 44.7002 41.5 44.0002V41.5002C43.4 41.5002 50.8 41.5002 50.4 41.5002C51.1 41.5002 51.7 40.9002 51.7 40.2002C51.7 39.9002 51.6 39.6002 51.4 39.4002L41.6 26.0002V22.8002C41.6 20.4002 39.7 18.5002 37.3 18.5002C36.6 18.5002 36 18.7002 35.4 18.9002C35.4 18.9002 35.4 6.0002 35.4 5.8002C35.4 2.7002 32.9 0.200195 29.7 0.200195C26.6 0.200195 24 2.7002 24 5.8002C24 5.8002 24 18.8002 24 18.9002C23.4 18.6002 22.8 18.5002 22.1 18.5002C19.7 18.5002 17.8 20.4002 17.8 22.8002V26.0002L7.90003 39.4002C7.30003 40.2002 7.90003 41.4002 8.90003 41.4002H17.8V44.0002H17.3ZM23.5 42.8002H19.8V41.0002H23.5V42.8002ZM32.4 38.5002H26V25.5002C27.9 26.8002 30.5 26.8002 32.4 25.5002V38.5002ZM29.3 24.0002C27.6 24.0002 26.2 22.6002 26.2 20.9002C26.2 19.2002 27.6 17.8002 29.3 17.8002C31 17.8002 32.4 19.2002 32.4 20.9002C32.4 22.6002 31 24.0002 29.3 24.0002ZM32.4 16.2002C30.5 14.9002 27.9 14.9002 26 16.2002V9.6002H32.4V16.2002ZM29.4 46.5002C27.7 46.5002 26.1 45.1002 26.1 43.4002V41.1002H32.5V43.6002C32.4 45.2002 31 46.5002 29.4 46.5002ZM38.8 42.8002H35V41.0002H38.7V42.8002H38.8ZM47.6 39.0002H41.2V30.3002L47.6 39.0002ZM35.1 22.8002C35.1 21.8002 35.9 21.0002 36.9 21.0002C37.9 21.0002 38.7 21.8002 38.7 22.8002C38.7 26.1002 38.7 35.3002 38.7 38.4002H35L35.1 22.8002ZM26.2 5.90019C26.2 4.20019 27.6 2.8002 29.3 2.8002C31 2.8002 32.4 4.20019 32.4 5.90019V7.2002H26V5.90019H26.2ZM19.8 22.9002C19.8 21.9002 20.6 21.1002 21.6 21.1002C22.6 21.1002 23.4 21.9002 23.4 22.9002L23.5 38.6002H19.8C19.8 35.4002 19.8 26.2002 19.8 22.9002ZM17.3 30.3002V39.0002H10.9L17.3 30.3002Z" fill="black"/>
<path d="M48.3998 53.7C48.1998 51.1 46.0998 49 43.2998 49C41.7998 49 40.3998 49.7 39.4998 50.8C37.3998 49.4 34.4998 49.8 32.7998 51.7C30.7998 50.4 27.9998 50.7 26.3998 52.4C25.2998 51.7 23.9998 51.7 22.7998 52.1C21.8998 50.8 20.3998 49.9 18.6998 49.9C16.6998 49.9 14.8998 51.1 13.9998 52.9C11.3998 52.2 8.7998 54.2 8.7998 56.8C8.7998 57.5 9.39979 58.1 10.0998 58.1C10.7998 58.1 11.3998 57.5 11.3998 56.8C11.3998 55.9 12.0998 55.2 12.9998 55.2C13.3998 55.2 13.7998 55.3 13.9998 55.6C14.3998 55.9 14.8998 56 15.2998 55.8C15.6998 55.6 15.9998 55.2 16.0998 54.7C16.1998 53.4 17.2998 52.3 18.5998 52.3C19.6998 52.3 20.6998 53 20.9998 54.1C21.2998 55 22.3998 55.3 23.0998 54.6C23.7998 53.9 24.8998 54 25.4998 54.8C26.0998 55.6 27.1998 55.5 27.5998 54.6C28.3998 52.9 30.7998 52.7 31.8998 54.2C32.4998 55 33.6998 54.8 34.0998 53.9C34.7998 52 37.2998 51.6 38.5998 53.3C39.1998 54.1 40.3998 53.9 40.7998 53C41.1998 52 42.0998 51.3 43.1998 51.3C44.8998 51.3 46.0998 53 45.5998 54.6C45.3998 55.1 45.5998 55.6 45.8998 55.9C46.2998 56.2 46.7998 56.3 47.1998 56.1C48.1998 55.7 49.3998 56.4 49.3998 57.5C49.3998 58.2 49.9998 58.8 50.6998 58.8C51.3998 58.8 51.9998 58.2 51.9998 57.5C52.1998 55.6 50.5998 53.9 48.3998 53.7Z" fill="black"/>
</svg>
