<svg width="683" height="683" viewBox="0 0 683 683" fill="none" xmlns="http://www.w3.org/2000/svg">
<g clip-path="url(#clip0_4_50)">
<path d="M188.667 12.0003C182.267 14.5336 180.133 22.9336 184.533 27.867C185.867 29.3336 192.267 33.067 198.8 36.1336C205.333 39.2003 210.667 42.1336 210.667 42.667C210.667 43.067 208.4 44.267 205.733 45.2003C195.6 48.8003 169.733 61.6003 156.8 69.6003C134.667 83.067 113.733 99.6003 95.3334 118C52.9334 160.4 23.4667 212.4 9.46672 269.467C2.53338 298.267 0.800049 313.467 0.800049 346.667C0.800049 380.534 2.66672 396.934 10.1334 426.534C14.9334 446 17.7334 450.667 24.2667 450.667C28.6667 450.667 34.6667 445.467 34.6667 441.734C34.6667 440.4 32.6667 431.2 30.1334 421.334C23.8667 396.534 21.3334 375.067 21.3334 346.8C21.3334 320.8 22.5334 308.667 27.4667 284.267C33.4667 253.867 48.4001 216.134 64.9334 189.334C98.2667 135.2 148 92.4003 206.4 67.467L217.333 62.8003L215.467 66.4003C214.4 68.4003 211.067 74.1336 208.133 79.3336C201.867 90.1336 201.467 93.467 206 98.0003C210.133 102.267 215.867 102.4 219.733 98.267C223.333 94.5336 250.667 48.1336 250.667 45.867C250.667 39.6003 247.333 37.2003 222 24.8003C193.333 10.8003 192.4 10.4003 188.667 12.0003Z" fill="white"/>
<path d="M387.6 32.2668C384 35.2002 382.4 41.0668 384.267 45.0668C385.6 47.8668 387.867 49.2002 394 51.0668C436.4 64.0002 454.133 71.2002 478.133 85.4668C518 109.2 554 143.6 579.067 182.133C609.067 228 625.6 280.133 627.6 335.467C628.4 355.467 626.4 387.467 624.133 393.6C623.467 395.334 621.467 392.667 616.133 383.334C609.067 370.667 606.533 368 601.467 368C597.2 368 591.6 373.734 591.6 378.134C591.6 381.734 616 426.667 621.067 432.267C625.6 437.6 630.667 435.6 656 418.667C684.133 399.867 686.4 397.067 679.867 388.8C675.467 383.2 670.533 384.134 656.667 393.334C650.133 397.6 644.667 401.067 644.533 400.934C644.4 400.8 645.067 394.4 646.133 386.667C648.8 367.467 648.667 326.133 646 306C636.133 231.733 604.933 168.933 551.733 116.4C534 98.8002 523.333 90.0002 503.333 76.6668C476 58.4002 446.533 44.8002 413.6 35.3335C395.867 30.2668 391.067 29.7335 387.6 32.2668Z" fill="white"/>
<path d="M228.533 173.334C215.067 176.8 206 181.867 197.333 190.534C189.067 198.667 182.667 210.534 179.333 223.334C176.933 232.8 176.533 257.467 178.667 269.6C182.133 289.2 190.8 311.067 200.533 324.534L205.2 331.2L200.933 333.867C193.067 338.667 167.467 350.4 155.733 354.534C139.333 360.267 133.867 363.334 124.933 371.867C104.8 391.067 94.0001 425.2 94.9334 466.4C95.4667 491.2 92.0001 489.334 138.133 489.334H174.667V497.734C174.667 504.8 175.2 506.667 177.733 509.067L180.8 512H332.267H483.867L486.533 508.534C488.667 505.867 489.333 503.067 489.333 497.2V489.334H525.2C544.933 489.334 562.133 488.934 563.333 488.534C567.733 486.8 569.333 480.667 569.333 465.734C569.333 425.734 559.6 393.734 541.467 374.267C532.4 364.667 525.467 360.534 508.533 354.667C491.467 348.667 458.4 332.267 459.6 330.267C460.133 329.334 463.067 324.8 466.133 320C475.333 305.734 481.6 289.2 485.467 269.067C487.467 258.267 487.067 232.534 484.667 223.334C475.867 189.2 450.133 170.667 411.467 170.667C404 170.667 394.133 171.6 389.467 172.667C379.067 175.2 365.2 182.267 358 188.934L352.667 193.867H332L311.333 194L304.4 187.867C296.4 180.8 285.733 175.334 274.133 172.667C262.533 169.867 240.267 170.267 228.533 173.334ZM268.533 192.667C277.6 194.534 289.333 200.267 289.333 202.667C289.333 203.467 288.8 204 288.133 204C285.733 204 272.133 217.467 268 224C265.6 227.734 262.133 235.334 260.267 241.067C257.2 250.134 256.8 253.6 256.8 270C256.8 290.134 259.333 303.734 266 320.534C267.867 325.067 269.333 329.334 269.333 329.867C269.333 331.867 257.733 336 251.867 336C232.667 336 210 309.734 201.067 276.667C196.933 261.2 196.933 233.334 201.067 222.134C207.333 205.067 219.333 195.867 240.667 191.467C246.667 190.267 259.867 190.8 268.533 192.667ZM425.333 192C429.333 192.8 435.867 194.934 439.867 196.8C458.933 205.467 468 224.934 466.267 253.334C464.133 286.534 447.6 319.467 426.8 331.734C421.867 334.667 419.067 335.334 412 335.334C401.867 335.334 395.2 332.667 395.6 328.667C395.733 327.2 397.6 320.8 399.867 314.534C410.4 285.067 410.133 252.534 398.933 229.6C395.467 222.4 384.267 209.467 377.467 204.934C373.733 202.4 374.533 200.8 381.6 197.2C392.667 191.467 411.2 189.334 425.333 192ZM344 214.8C356.8 216.8 367.067 222 374 229.6C382.267 238.8 385.467 248.134 386.267 265.334C388.533 311.734 361.2 358.534 331.6 358.667C309.733 358.8 286.933 329.734 279.333 292.134C276.133 276.934 277.067 254.4 281.2 243.734C289.733 221.467 314.667 210 344 214.8ZM228.8 350.667C244.133 358.534 260.133 358.667 274.667 351.334L280.667 348.267L283.067 351.467L285.467 354.667L266.4 363.867C255.867 369.067 245.733 373.6 243.733 374.134C240.267 374.934 230 370 208.933 357.2L205.067 354.934L212.267 350.934C216.133 348.8 219.733 346.934 220.133 346.8C220.533 346.8 224.533 348.534 228.8 350.667ZM450 350.267C454 352.267 457.333 354.267 457.333 354.8C457.333 355.334 449.733 360.134 440.533 365.467C420.667 376.8 423.333 376.934 396 363.2L378.667 354.534L380.933 351.467L383.333 348.267L389.333 351.334C403.867 358.667 420.133 358.534 434.667 350.8C438.667 348.667 442.133 346.8 442.267 346.8C442.533 346.667 445.867 348.267 450 350.267ZM505.333 375.334C515.333 378.667 517.6 380 524.8 387.2C539.2 401.6 546.4 421.867 547.6 451.6L548.4 469.334H518.933H489.467L488.667 464.267C485.867 446.8 484.533 440.8 481.067 430.667C474.667 412.4 461.867 394.267 450 386.8C448.533 385.867 448 384.934 448.667 384.534C449.467 384.267 456.933 379.867 465.333 374.934L480.667 365.867L487.333 368.667C491.067 370.267 499.067 373.334 505.333 375.334ZM199.067 375.467C207.333 380.4 214.133 384.4 214.4 384.667C214.533 384.8 210 389.734 204.133 395.6C195.867 404 192.4 408.8 188 417.734C182.667 428.667 176.933 449.067 175.333 462.934L174.533 469.334H145.2H116V455.6C116 439.067 119.333 421.867 125.467 407.334C128.933 398.8 131.6 394.934 138.533 387.867C146 380.4 148.8 378.667 156.533 376C161.6 374.4 169.067 371.6 173.2 369.867C177.333 368.134 181.467 366.8 182.4 366.667C183.333 366.667 190.933 370.667 199.067 375.467ZM309.467 373.867C324.8 381.6 340.533 381.467 356 373.2L363.2 369.334L370.267 372.934C374.133 375.067 377.333 376.934 377.333 377.334C377.333 378.267 336.533 401.467 333.333 402.267C330.8 402.934 322.933 399.067 298.4 385.067C291.867 381.334 286.667 378 286.667 377.467C286.667 376.8 298.133 369.867 300 369.467C300.4 369.467 304.667 371.334 309.467 373.867ZM283.733 400.534C315.2 418.534 328.667 425.334 332.533 425.334C336.133 425.334 362 411.6 387.067 396.4C393.467 392.534 399.467 389.334 400.267 389.334C402.133 389.334 430.133 399.734 436 402.8C447.333 408.4 459.6 426.934 464.533 446C467.2 456.267 469.6 477.6 469.067 485.334L468.667 491.334L332.267 491.734C204.8 492 195.867 491.867 195.067 489.734C193.6 486 197.067 454.8 200 444C206.8 420.134 218.4 406 237.333 398.8C243.6 396.534 251.333 393.467 254.667 392C258 390.667 261.467 389.467 262.4 389.467C263.467 389.334 273.067 394.4 283.733 400.534Z" fill="white"/>
<path d="M537.467 563.067C498 600.667 456.8 624.667 406.4 639.2C359.2 652.8 302.933 654 254.933 642.667C214.667 633.067 169.2 611.2 138.267 586.534L131.6 581.334H147.067C164.267 581.334 167.333 580.134 168.8 572.4C169.467 569.067 168.933 567.467 166.4 564.934C163.333 561.867 162.4 561.734 134.533 560.8C92.1334 559.467 94.0001 557.734 96.6667 596C97.7334 611.067 98.6667 624.4 98.6667 625.734C98.6667 629.2 104.667 634.667 108.4 634.667C110.133 634.667 113.333 633.334 115.333 631.734L119.067 628.8L118.267 613.067C117.867 604.4 117.867 597.334 118.267 597.334C118.667 597.334 121.867 599.734 125.333 602.667C156.133 628.4 211.2 654.4 254.667 663.867C299.6 673.467 350.8 673.2 395.733 663.2C446.667 651.867 495.467 627.334 535.467 592.8C556.4 574.934 565.333 565.2 565.333 560.267C565.333 555.067 561.733 550.934 556.4 549.867C552.4 549.067 551.2 550 537.467 563.067Z" fill="white"/>
</g>
<defs>
<clipPath id="clip0_4_50">
<rect width="682.667" height="682.667" fill="white"/>
</clipPath>
</defs>
</svg>
