<svg width="63" height="63" viewBox="0 0 63 63" fill="none" xmlns="http://www.w3.org/2000/svg">
<path d="M60.7001 34.0004C61.4001 34.0004 62.0001 33.4004 62.0001 32.7004V2.20041C62.0001 1.50041 61.4001 0.900391 60.7001 0.900391H1.40009C0.700085 0.900391 0.100098 1.50041 0.100098 2.20041V32.8004C0.100098 33.5004 0.700085 34.1004 1.40009 34.1004C2.20009 34.1004 28.9001 34.1004 29.7001 34.1004V41.7004H6.6001C5.9001 41.7004 5.30011 42.3004 5.30011 43.0004V49.5004C2.40011 50.1004 0.100098 52.7004 0.100098 55.7004C0.100098 59.2004 3.0001 62.1004 6.6001 62.1004C10.2001 62.1004 13.1001 59.2004 13.1001 55.7004C13.1001 52.6004 10.9001 50.0004 7.90009 49.5004V44.3004H29.9001V49.5004C27.0001 50.1004 24.7001 52.7004 24.7001 55.7004C24.7001 59.2004 27.6001 62.1004 31.2001 62.1004C34.7001 62.1004 37.7001 59.2004 37.7001 55.7004C37.7001 52.6004 35.5001 50.0004 32.5001 49.5004V44.3004H54.5001V49.5004C51.6001 50.1004 49.3001 52.7004 49.3001 55.7004C49.3001 59.2004 52.2001 62.1004 55.8001 62.1004C59.3001 62.1004 62.3001 59.2004 62.3001 55.7004C62.3001 52.6004 60.1001 50.0004 57.1001 49.5004V43.0004C57.1001 42.3004 56.5001 41.7004 55.8001 41.7004H32.4001V34.0004C33.3001 34.0004 59.9001 34.0004 60.7001 34.0004ZM10.5001 55.7004C10.5001 57.8004 8.8001 59.5004 6.7001 59.5004C4.6001 59.5004 2.90009 57.8004 2.90009 55.7004C2.90009 53.6004 4.6001 51.9004 6.7001 51.9004C8.7001 51.9004 10.5001 53.6004 10.5001 55.7004ZM34.9001 55.7004C34.9001 57.8004 33.2001 59.5004 31.1001 59.5004C29.0001 59.5004 27.3001 57.8004 27.3001 55.7004C27.3001 53.6004 29.0001 51.9004 31.1001 51.9004C33.2001 51.9004 34.9001 53.6004 34.9001 55.7004ZM59.4001 55.7004C59.4001 57.8004 57.7001 59.5004 55.6001 59.5004C53.5001 59.5004 51.8001 57.8004 51.8001 55.7004C51.8001 53.6004 53.5001 51.9004 55.6001 51.9004C57.7001 51.9004 59.4001 53.6004 59.4001 55.7004ZM2.80011 3.5004H59.6001V31.5004H42.8001V27.7004C42.8001 22.9004 39.8001 18.8004 35.6001 17.1004C36.9001 15.9004 37.6001 14.3004 37.6001 12.4004C37.6001 8.90039 34.7001 6.0004 31.1001 6.0004C27.6001 6.0004 24.6001 8.90039 24.6001 12.4004C24.6001 14.2004 25.4001 15.9004 26.6001 17.1004C22.5001 18.8004 19.4001 22.9004 19.4001 27.7004V31.5004H2.7001V3.5004H2.80011ZM27.3001 12.4004C27.3001 10.3004 29.0001 8.6004 31.1001 8.6004C33.2001 8.6004 34.9001 10.3004 34.9001 12.4004C34.9001 14.5004 33.2001 16.2004 31.1001 16.2004C29.0001 16.2004 27.3001 14.5004 27.3001 12.4004ZM22.1001 27.7004C22.1001 22.8004 26.1001 18.8004 31.1001 18.8004C36.1001 18.8004 40.1001 22.8004 40.1001 27.7004V31.5004H37.6001V26.4004C37.6001 25.7004 37.0001 25.1004 36.3001 25.1004C35.6001 25.1004 35.0001 25.7004 35.0001 26.4004V31.5004H27.3001V26.4004C27.3001 25.7004 26.7001 25.1004 26.0001 25.1004C25.3001 25.1004 24.7001 25.7004 24.7001 26.4004V31.5004H22.2001V27.7004H22.1001Z" fill="black"/>
<path d="M9.1001 13.7002H6.6001V16.2002H9.1001V13.7002Z" fill="black"/>
<path d="M14.3 13.7002H11.8V16.2002H14.3V13.7002Z" fill="black"/>
<path d="M19.4001 13.7002H16.9001V16.2002H19.4001V13.7002Z" fill="black"/>
<path d="M46.4001 13.7002H43.9001V16.2002H46.4001V13.7002Z" fill="black"/>
<path d="M51.6001 13.7002H49.1001V16.2002H51.6001V13.7002Z" fill="black"/>
<path d="M56.8 13.7002H54.3V16.2002H56.8V13.7002Z" fill="black"/>
</svg>
