<svg width="683" height="683" viewBox="0 0 683 683" fill="none" xmlns="http://www.w3.org/2000/svg">
<g clip-path="url(#clip0_3_45)">
<path d="M208.933 1.3332C195.6 4.79987 182.4 15.4665 177.2 27.3332C173.2 36.3999 172.533 48.9332 175.333 59.5999C177.067 65.9999 177.333 68.6665 176.267 69.0665C171.867 70.5332 145.6 87.1999 143.067 90.1332C139.733 93.7332 138.933 100.933 141.333 105.467C143.467 109.2 150.4 112.4 154.933 111.467C157.067 111.067 161.333 108.933 164.4 106.933C171.467 102 194.8 88.9332 195.2 89.4665C195.333 89.7332 198.267 93.3332 201.6 97.3332C216.4 115.333 230.8 141.2 235.333 158C238.933 171.067 239.333 185.467 236.533 203.333C234.8 215.2 234.267 226.8 234.267 248.133L234.4 276.933L226.667 277.733C210.667 279.2 212.667 277.467 124.533 365.6C79.7333 410.267 42.6667 446.4 42.2667 445.733C41.7333 444.933 40 438.8 38.1333 431.867C17.8667 353.2 30.5333 269.733 73.4667 199.867C83.7333 183.2 84 176.133 74.4 171.2C69.3333 168.533 62.8 169.6 59.0667 173.733C50.8 182.8 34.4 213.467 24.9333 237.333C9.19999 276.667 2.39999 313.467 2.53332 358.533C2.53332 423.867 20.9333 484.133 57.4667 538.667C134.533 653.733 274.667 706.667 410.267 671.867C451.733 661.333 498.133 637.733 531.6 610.533C597.333 556.933 639.067 482.133 650 398.267C652.667 377.333 652.667 337.6 649.867 315.6L647.733 298.533L659.6 286.267C672.933 272.4 678.133 263.6 679.733 251.333C683.333 223.867 667.2 199.867 640.667 193.2L634.4 191.6L635.067 185.467C636.8 170.133 630.667 153.467 619.2 142.533C612 135.867 600.4 129.333 595.333 129.333C590.667 129.333 590 127.6 590 114.667C589.867 103.2 589.467 101.2 585.6 93.1999C580.533 82.6665 571.067 73.1999 560.267 68.2665C553.867 65.1999 550.533 64.6665 539.467 64.3999L526.133 64.1332L524.4 57.0665C521.867 47.3332 517.333 40.1332 508.667 32.2665C498.533 23.0665 489.333 19.4665 474.667 19.4665C458 19.4665 450.533 22.7999 436.4 36.3999L425.333 47.0665L413.067 43.5999C383.467 35.3332 363.6 32.9332 325.867 32.6665L293.733 32.5332L282.533 24.2665C270.133 15.1999 257.067 8.26653 244 3.99987C234.267 0.666533 216.8 -0.6668 208.933 1.3332ZM236.933 29.9999C269.467 40.2665 301.733 73.1999 328.4 123.333C338.267 142 343.2 146.533 354.667 147.733L361.467 148.4L411.733 98.2665C456.267 53.8665 462.667 47.9999 467.867 46.6665C478.667 43.8665 489.333 47.8665 495.6 57.1999C501.733 66.2665 501.2 75.9999 494.133 86.3999C487.733 95.5999 487.333 102.133 492.667 107.333C495.067 109.867 497.333 110.667 501.867 110.667C507.467 110.667 508.667 110 517.067 102C527.2 92.3999 530.8 90.6665 539.467 90.6665C549.733 90.6665 558 96.2665 562 105.733C566.533 116.533 563.6 126.133 552.667 137.333C544 146.133 542 150.667 544 156.8C547.2 166.4 556.667 167.867 567.467 160.533C584.4 148.8 604.8 156.4 608.4 175.733C610 184.133 606.933 191.6 597.867 201.2C588.267 211.467 586.8 215.2 590 221.733C593.733 229.6 603.467 231.733 610.267 226.133C617.467 220.133 622.533 218.4 630.8 218.933C639.467 219.6 646.533 224 651.067 231.733C654.267 237.067 654.267 248.8 651.333 254.933C650.133 257.333 617.733 290.533 579.6 328.8C528.133 380.133 507.6 399.733 500.667 404.133C495.6 407.467 480 416 466 423.2C452.133 430.4 436.267 439.2 430.8 442.8C425.333 446.4 420.267 449.333 419.467 449.333C418.667 449.333 383.067 414.4 340.267 371.6L262.533 293.867L261.2 268.533C259.867 241.2 260.4 227.2 263.6 204.8C266 187.867 265.333 168 261.867 154.667C254.667 127.067 237.2 96.9332 212.667 69.3332C201.867 57.0665 199.333 51.8665 200.4 43.5999C201.333 36.9332 204.8 31.9999 210.8 29.0665C217.067 25.7332 224.667 26.1332 236.933 29.9999ZM355.467 60.1332C370.133 61.4665 400.933 67.0665 402.4 68.6665C402.8 69.0665 392.533 80.1332 379.333 93.3332L355.6 117.2L347.867 103.2C340.133 89.4665 328.4 71.3332 321.733 62.9332L318.267 58.6665H329.6C335.733 58.6665 347.467 59.3332 355.467 60.1332ZM324.933 393.6C412.533 481.2 413.333 482.133 413.333 487.333C413.333 490.267 412.4 494.267 411.2 496C408 500.8 360.933 548 359.333 548C358.667 548 315.333 505.467 263.333 453.333L168.667 358.667L192 335.2C220.933 306.133 224.133 303.467 231.2 304.4C236.133 305.067 242.667 311.333 324.933 393.6ZM625.2 355.333C625.467 392.933 621.333 419.067 610 452.933C572.8 564.533 472.267 643.467 353.333 654.8C337.6 656.267 295.333 655.733 293.6 654C293.2 653.6 324.667 621.333 363.467 582.267C444.133 501.467 440.933 505.467 439.6 486C439.2 480.133 438.667 474.133 438.4 472.667C437.867 469.067 447.6 462.667 479.733 446.133C494.267 438.667 510.667 429.6 516.133 426C523.2 421.333 539.867 405.733 574.667 371.067C620.8 325.2 623.333 322.933 624.133 326.4C624.667 328.4 625.067 341.467 625.2 355.333ZM300.667 608C254.933 653.867 262.267 649.733 239.6 642.667C176.533 623.2 122.667 584.4 84.4 530.933C74.6667 517.333 61.6 494.8 56.4 482.933L52.8 474.533L101.467 425.867L150 377.333L245.333 472.667L340.667 568L300.667 608Z" fill="white"/>
<path d="M218.533 347.866C213.467 353.066 213.333 359.466 218.133 365.2C220.933 368.666 222.533 369.333 227.2 369.333C233.733 369.333 237.733 366.933 240 361.466C245.333 348.4 228.667 337.866 218.533 347.866Z" fill="white"/>
<path d="M97.2 127.866C85.4667 139.733 102.933 157.066 115.6 146.133C118.667 143.466 119.333 141.866 119.333 136.666C119.333 131.466 118.667 129.866 115.6 127.2C110.133 122.533 102.4 122.8 97.2 127.866Z" fill="white"/>
</g>
<defs>
<clipPath id="clip0_3_45">
<rect width="682.667" height="682.667" fill="white"/>
</clipPath>
</defs>
</svg>
