<svg width="63" height="63" viewBox="0 0 63 63" fill="none" xmlns="http://www.w3.org/2000/svg">
<path d="M13.9999 37.3004C14.7999 36.4004 15.1999 35.3004 15.1999 34.0004C15.1999 31.2004 12.8999 28.9004 9.99991 28.9004C7.19991 28.9004 4.79991 31.2004 4.79991 34.0004C4.79991 35.3004 5.29991 36.4004 5.99991 37.3004C2.99991 38.5004 0.899902 41.1004 0.899902 44.1004V50.4004C0.899902 51.1004 1.49991 51.7004 2.19991 51.7004H4.69991V60.6004C4.69991 61.3004 5.29991 61.9004 5.99991 61.9004C6.69991 61.9004 7.29991 61.3004 7.29991 60.6004V48.1004C7.29991 47.4004 6.69991 46.8004 5.99991 46.8004C5.29991 46.8004 4.69991 47.4004 4.69991 48.1004V49.2004H3.3999V44.2004C3.3999 41.4004 6.2999 39.2004 9.8999 39.2004C13.3999 39.2004 16.3999 41.4004 16.3999 44.2004V49.2004H15.0999V48.1004C15.0999 47.4004 14.4999 46.8004 13.7999 46.8004C13.0999 46.8004 12.4999 47.4004 12.4999 48.1004V60.6004C12.4999 61.3004 13.0999 61.9004 13.7999 61.9004C14.4999 61.9004 15.0999 61.3004 15.0999 60.6004V51.7004H17.5999C18.2999 51.7004 18.8999 51.1004 18.8999 50.4004V44.1004C19.1999 41.2004 17.0999 38.6004 13.9999 37.3004ZM7.59991 34.0004C7.59991 32.6004 8.69991 31.5004 10.0999 31.5004C11.4999 31.5004 12.5999 32.6004 12.5999 34.0004C12.5999 35.4004 11.4999 36.5004 10.0999 36.5004C8.69991 36.6004 7.59991 35.5004 7.59991 34.0004Z" fill="black"/>
<path d="M10.0998 53.1006C9.39981 53.1006 8.7998 53.7006 8.7998 54.4006V60.7006C8.7998 61.4006 9.39981 62.0006 10.0998 62.0006C10.7998 62.0006 11.3998 61.4006 11.3998 60.7006V54.4006C11.3998 53.6006 10.7998 53.1006 10.0998 53.1006Z" fill="black"/>
<path d="M61.6998 14.9004H55.6998C54.9998 14.9004 54.3998 15.5004 54.3998 16.2004V48.1004H50.9998V43.0004C50.9998 42.3004 50.3998 41.7004 49.6998 41.7004H44.8998V32.8004C44.8998 32.1004 44.2998 31.5004 43.5998 31.5004H37.5998C36.8998 31.5004 36.2998 32.1004 36.2998 32.8004V49.4004H32.8998V43.0004C32.8998 42.3004 32.2998 41.7004 31.5998 41.7004H25.5998C24.8998 41.7004 24.2998 42.3004 24.2998 43.0004V60.8004C24.2998 61.5004 24.8998 62.1004 25.5998 62.1004C33.6998 62.1004 54.6998 62.1004 61.6998 62.1004C62.3998 62.1004 62.9998 61.5004 62.9998 60.8004V16.2004C62.9998 15.5004 62.3998 14.9004 61.6998 14.9004ZM36.2998 51.9004V59.5004H32.8998V51.9004H36.2998ZM26.8998 44.2004H30.2998C30.2998 47.5004 30.2998 56.0004 30.2998 59.5004H26.8998V44.2004ZM38.8998 34.0004H42.2998C42.2998 35.0004 42.2998 58.3004 42.2998 59.5004H38.8998C38.8998 58.5004 38.8998 35.2004 38.8998 34.0004ZM44.8998 44.2004H48.2998C48.2998 45.1004 48.2998 58.7004 48.2998 59.5004H44.8998V44.2004ZM50.9998 50.6004H54.3998V59.5004H50.9998V50.6004ZM60.3998 59.5004H56.9998C56.9998 58.6004 56.9998 18.0004 56.9998 17.4004H60.3998V59.5004Z" fill="black"/>
<path d="M26.8 19.8006L19.1 15.5006C19.4 13.2006 17.6 11.2006 15.3 11.2006C13.2 11.2006 11.5 12.9006 11.5 15.0006C11.5 17.1006 13.2 18.8006 15.3 18.8006C16.3 18.8006 17.2 18.4006 17.9 17.8006L25.6 22.1006C25.3 24.4006 27.1 26.4006 29.4 26.4006C31.8 26.4006 33.6 24.3006 33.2 21.9006L39 16.1006C39.4 16.2006 39.9 16.2006 40.3 16.1006L44.4 21.3006C43.9 22.0006 43.6 22.9006 43.6 23.9006C43.6 26.0006 45.3 27.7006 47.4 27.7006C49.5 27.7006 51.2 26.0006 51.2 23.9006C51.2 21.6006 49.1 19.7006 46.7 20.1006L42.5 14.9006C43.1 14.2006 43.4 13.3006 43.4 12.4006C43.4 10.3006 41.7 8.60059 39.6 8.60059C37.5 8.60059 35.8 10.3006 35.8 12.4006C35.8 13.3006 36.1 14.2006 36.7 14.8006L31.8 19.6006C30.4 18.4006 28.2 18.5006 26.8 19.8006ZM15.2 16.2006C14.5 16.2006 13.9 15.6006 13.9 14.9006C13.9 14.2006 14.5 13.6006 15.2 13.6006C15.9 13.6006 16.5 14.2006 16.5 14.9006C16.6 15.6006 15.9 16.2006 15.2 16.2006ZM29.5 23.9006C28.8 23.9006 28.2 23.3006 28.2 22.6006C28.2 21.9006 28.8 21.3006 29.5 21.3006C30.2 21.3006 30.8 21.9006 30.8 22.6006C30.7 23.3006 30.2 23.9006 29.5 23.9006ZM48.8 23.9006C48.8 24.6006 48.2 25.2006 47.5 25.2006C46.8 25.2006 46.2 24.6006 46.2 23.9006C46.2 23.2006 46.8 22.6006 47.5 22.6006C48.2 22.6006 48.8 23.2006 48.8 23.9006ZM39.7 11.1006C40.4 11.1006 41 11.7006 41 12.4006C41 13.1006 40.4 13.7006 39.7 13.7006C39 13.7006 38.4 13.1006 38.4 12.4006C38.5 11.7006 39 11.1006 39.7 11.1006Z" fill="black"/>
<path d="M2.39984 3.5004H19.1998C19.8998 3.5004 20.4998 2.90041 20.4998 2.20041C20.4998 1.50041 19.8998 0.900391 19.1998 0.900391H2.39984C1.69984 0.900391 1.09985 1.50041 1.09985 2.20041C1.09985 2.90041 1.69984 3.5004 2.39984 3.5004Z" fill="black"/>
<path d="M20.3998 7.29999C20.3998 6.59999 19.7999 6 19.0999 6H8.89984C8.19984 6 7.59985 6.59999 7.59985 7.29999C7.59985 7.99999 8.19984 8.60001 8.89984 8.60001H19.1998C19.8998 8.60001 20.3998 7.99999 20.3998 7.29999Z" fill="black"/>
</svg>
