<svg width="683" height="683" viewBox="0 0 683 683" fill="none" xmlns="http://www.w3.org/2000/svg">
<path d="M450.267 13.5999C448.4 15.3332 444.8 22.3999 442 29.4666C437.333 42.1332 437.067 42.2666 431.6 43.8666C428.533 44.7999 419.867 48.2666 412.4 51.5999L398.8 57.5999L386.533 52.1332C379.867 49.0666 372.533 46.6666 370.267 46.6666C366.8 46.6666 363.2 49.5999 346.533 66.1332C335.733 76.9332 326.533 87.0666 326 88.9332C325.467 91.0666 327.2 96.5332 331.333 106L337.333 120L333.2 128.267C330.8 132.933 327.2 141.467 325.2 147.2L321.467 157.867L308.667 162.8C289.867 170.133 290.667 168.8 290.667 191.867V211.333L280.933 216.267C251.733 231.333 227.467 261.6 218.4 294.267C216 302.933 215.467 308.267 215.467 326.667C215.467 346.933 215.733 349.6 219.2 360.667C234.133 409.6 274.8 443.6 325.333 449.6C354 452.933 383.067 445.6 408.933 428.4C419.2 421.6 434.267 406.4 441.333 395.733C446.933 387.2 447.067 387.067 449.467 389.467C451.733 391.733 454.4 392 481.067 392C515.333 392 512.4 393.333 519.867 374L524.8 361.2L535.467 357.467C541.2 355.467 549.733 351.867 554.4 349.467L562.667 345.333L576.667 351.333C586.133 355.467 591.6 357.2 593.733 356.667C595.6 356.133 605.733 346.933 616.533 336.133C633.067 319.467 636 315.867 636 312.4C636 310.133 633.6 302.8 630.533 296.133L625.067 283.867L631.067 270.267C634.4 262.8 637.867 254.133 638.8 251.067C640.4 245.6 640.533 245.333 653.2 240.667C672.667 233.2 672 234.667 672 201.467C672 176.933 671.733 173.333 669.733 170.8C668.4 169.2 661.333 165.733 654 162.8L640.667 157.733L637.2 147.867C635.333 142.4 631.733 133.867 629.333 128.933L624.933 119.867L630.4 107.2C638.8 87.9999 639.333 89.4666 616.267 66.3999C593.2 43.3332 594.667 43.8666 575.467 52.2666L562.8 57.7332L554 53.4666C549.067 51.0666 540.533 47.4666 535.067 45.3332L524.8 41.7332L519.733 28.5332C516.933 21.1999 513.467 14.2666 511.867 12.9332C509.333 10.9332 505.733 10.6666 481.2 10.6666C454.267 10.6666 453.333 10.7999 450.267 13.5999ZM502.667 43.5999C505.067 50.1332 508.267 56.6666 509.867 58.1332C511.333 59.7332 518 62.5332 524.4 64.5332C530.933 66.5332 541.333 70.7999 547.6 74.1332C553.733 77.3332 560.533 79.9999 562.4 79.9999C564.4 79.9999 571.067 77.5999 577.333 74.7999L588.667 69.5999L600.8 81.5999L613.067 93.5999L607.867 105.333C605.067 111.733 602.667 118.533 602.667 120.4C602.667 122.267 605.333 128.933 608.533 135.067C611.867 141.333 616.133 151.733 618.133 158.267C620.133 164.667 622.933 171.333 624.533 172.8C626 174.4 632.667 177.6 639.067 180L650.8 184.4L650.4 201.6L650 218.933L638 223.467C631.467 226 625.067 229.2 623.867 230.4C622.667 231.6 620 238 618.133 244.667C616.133 251.2 611.733 261.733 608.533 267.867C605.333 274 602.667 280.667 602.667 282.667C602.667 284.667 605.067 291.467 607.867 297.733L613.067 308.933L600.8 321.2L588.533 333.467L576.4 328C569.733 325.067 563.333 322.667 562.133 322.667C561.067 322.667 554.133 325.6 547.067 329.2C539.867 332.8 528.8 337.333 522.267 339.333C509.067 343.333 508.8 343.467 502.533 359.733L498.267 370.8L480.933 370.4L463.733 370L461.2 363.6C459.067 358.267 458.933 356.267 460 352.267C462.533 343.6 463.067 317.733 460.933 306C459.867 300.133 459.067 295.2 459.333 295.067C459.467 294.8 463.067 295.333 467.467 296.133C476.933 297.867 494.933 296.933 506 294C538.533 285.333 565.733 257.467 574.133 224C577.067 212.533 577.067 191.467 574.133 179.333C563.733 136.267 525.6 106.267 481.333 106.267C464 106.267 453.867 108.667 438 116.667C405.733 132.8 385.333 165.867 385.333 202.267C385.333 210 385.067 210.8 383.067 210C381.733 209.467 374.933 207.6 368 205.867C357.733 203.2 352.133 202.533 338.667 202.667C329.467 202.667 319.733 203.2 317.067 203.867L312 205.067V194.8V184.4L323.067 180.133C339.2 173.867 339.333 173.6 343.333 160.4C345.333 153.867 349.867 142.8 353.467 135.6C357.067 128.533 360 121.6 360 120.533C360 119.333 357.6 112.933 354.667 106.267L349.2 94.1332L361.467 81.8666L373.733 69.5999L384.933 74.7999C391.2 77.5999 398 79.9999 400 79.9999C402 79.9999 408.667 77.3332 414.8 74.1332C420.933 70.9332 431.467 66.5332 438 64.5332C444.667 62.5332 450.933 60.1332 452.133 59.0666C454 57.5999 457.067 50.5332 462.533 35.5999L464 31.9999H481.067H498.267L502.667 43.5999ZM501.333 130.267C513.067 133.467 524 140 533.333 149.333C556.8 172.8 561.733 206 546.4 236.533C541.467 246.4 526.267 261.867 516.4 267.067C502.267 274.667 483.333 277.6 467.867 274.667C452.933 271.867 450 270 442 258C437.733 251.467 429.6 242.133 422.133 235.067C410 223.6 409.467 222.933 408.133 215.333C406 203.867 406.267 195.067 409.333 183.467C412.933 169.2 417.733 160.933 428.667 149.867C448.4 129.867 474.533 122.8 501.333 130.267ZM363.333 226.8C392.667 233.733 418 254.4 431.2 282C437.467 295.067 440 305.067 440.933 320.667C444 373.467 406.267 419.733 353.6 427.867C340.933 429.867 334.533 429.733 320.8 427.333C288.4 421.733 260.933 400.933 246.667 371.467C238.933 355.333 236 342.933 236 326.4C236.133 280.4 264.267 242.267 308.667 227.867C324.933 222.667 344.533 222.267 363.333 226.8Z" fill="white"/>
<path d="M476.667 141.6C470.933 144.667 470.667 146 470.667 176.133C470.667 201.733 470.933 205.333 473.067 207.867C476.267 211.867 514.533 233.333 518.267 233.333C522.8 233.333 528 227.6 528 222.667C528 217.067 524.667 214.133 507.067 204.133L492 195.733V171.733V147.733L488.133 143.867C484 139.733 481.067 139.2 476.667 141.6Z" fill="white"/>
<path d="M331.333 247.333C328.933 249.6 328 252 328 255.733C328 260.533 327.733 261.067 322.933 262.4C304.533 268 292.133 287.333 296 304.533C299.867 321.867 310.8 330.533 335.6 336C350.933 339.333 356.267 341.6 360.533 346.667C370.267 358.4 359.333 370.8 339.2 370.8C325.467 370.8 317.467 366.267 313.067 356C310 348.667 307.467 346.667 301.733 346.667C292.4 346.667 289.333 355.733 294.8 367.333C299.733 377.867 312.133 387.333 326.4 391.467C327.333 391.733 328 394.133 328 397.067C328 403.6 332.667 408.4 338.933 408.4C344.4 408.4 349.333 402.933 349.333 396.667C349.333 392.4 349.6 392.133 356.533 390.133C366.533 387.2 375.867 380.533 380.667 372.8C384.267 366.8 384.667 365.067 384.667 355.467C384.533 342.933 381.867 336.4 374 329.6C366.8 323.2 359.733 320.133 343.2 316C325.067 311.6 320 308.933 317.6 302.4C315.867 298 316 296.933 318.133 292.4C321.867 284.933 330.133 281.067 340.8 281.6C350.4 282.133 356.667 286.133 361.467 294.533C365.2 301.2 370.4 303.6 375.867 301.333C380.267 299.6 383.333 293.6 382.267 289.067C379.6 278.8 367.867 267.333 355.733 262.933C349.6 260.8 349.333 260.533 349.333 255.6C349.333 249.2 344.667 244 338.667 244C336.133 244 333.333 245.2 331.333 247.333Z" fill="white"/>
<path d="M196.533 432C184.4 434.533 169.6 441.867 131.733 463.733C110 476.4 91.7333 486.667 91.0667 486.667C90.5333 486.667 88.2667 483.733 86.2667 480C79.8667 468.667 68.8 462.933 58 465.333C50.8 466.933 21.6 484.133 16.6667 489.6C11.0667 495.733 9.33332 504.8 12.2667 512.667C15.0667 520.533 94.4 660 98.4 664.267C103.067 669.333 112 672.533 118.667 671.6C124.8 670.8 156.533 653.867 160.8 649.067C169.467 639.733 170.133 629.733 163.333 616.533C160.8 611.6 158.667 607.2 158.667 606.667C158.667 606.133 161.867 604 165.733 602L172.667 598.4L235.6 615.2C270.133 624.533 302.533 632.8 307.467 633.6C318 635.2 331.733 633.6 343.2 629.333C349.2 627.067 450.4 565.733 521.733 521.067C540.933 509.067 545.333 504.133 548.8 490.533C555.067 465.867 539.733 443.6 514.4 440.533C504 439.333 489.067 442.8 474 449.867C467.467 453.067 440.4 468.133 414 483.6C370.667 508.933 355.733 517.333 354.267 517.333C354 517.333 354.667 513.867 355.733 509.467C358.133 499.467 356.267 489.2 350.133 480.4C343.067 470 336.133 466.267 315.067 461.333C304.933 458.933 280.133 451.333 260 444.4C228.133 433.467 222 431.733 212.667 431.333C206.8 431.067 199.6 431.333 196.533 432ZM251.333 464C268.267 470 292.133 477.467 304.4 480.667C328.667 486.8 332 488.667 334.8 496.933C336 500.667 335.867 502.667 334 507.467C329.2 520 321.333 520.133 280 508.533C245.867 499.067 246.8 499.2 242.267 502.667C237.467 506.4 237.2 514.267 241.733 518.267C244.667 520.933 287.067 533.333 309.333 538.133C325.733 541.6 343.467 542.133 354.4 539.467C364.933 536.8 369.467 534.4 434 496.8C458.933 482.267 483.867 468.533 489.333 466.267C502.133 461.067 515.067 460.533 520.933 464.8C530 471.467 531.733 485.467 524.267 493.2C520.933 496.667 351.733 601.467 339.2 607.733C330.8 612 318 613.867 308.533 612.133C304.267 611.333 271.6 602.8 236 593.333C200.533 583.733 170.533 576 169.333 576C168.267 576 162.8 578.667 157.333 582C151.867 585.2 147.333 587.733 147.2 587.6C145.733 585.867 101.333 506.267 101.6 506C103.467 504.267 178.533 461.467 185.067 458.4C205.067 449.333 211.467 449.867 251.333 464ZM106.533 559.2C137.467 613.867 146.8 631.467 145.867 632.933C144.4 635.333 117.867 650.667 115.467 650.667C113.867 650.667 33.7333 510.533 32.4 505.6C31.8667 503.467 34.5333 501.467 46.2667 494.8C54.1333 490.4 61.8667 486.8 63.3333 486.933C65.2 487.2 76.1333 505.467 106.533 559.2Z" fill="white"/>
<path d="M52 506.667C48.5333 510.133 48.5333 517.467 51.7333 520.4C57.6 525.733 68 521.333 68 513.6C68 505.6 57.6 501.067 52 506.667Z" fill="white"/>
</svg>
