<svg width="683" height="683" viewBox="0 0 683 683" fill="none" xmlns="http://www.w3.org/2000/svg">
<g clip-path="url(#clip0_8_17)">
<path d="M424.667 3.33321C421.6 6.26654 421.333 7.59988 421.333 17.9999C421.333 24.3999 421.867 30.6665 422.667 31.9999C424.667 35.7332 431.6 37.7332 435.733 35.5999C441.2 33.0665 442.8 28.5332 442.4 16.9332C442 7.33321 441.6 6.13321 438.267 3.19988C433.467 -0.933457 428.8 -0.933457 424.667 3.33321Z" fill="white"/>
<path d="M336.266 27.0665C332.133 31.4665 332.666 36.3998 338 45.9998C343.6 56.1331 345.6 57.8665 351.6 57.8665C357.333 57.8665 361.333 53.5998 361.333 47.7331C361.333 43.1998 351.733 25.9998 348.533 24.7998C344.133 23.0665 339.066 23.9998 336.266 27.0665Z" fill="white"/>
<path d="M512.4 26.9332C508 31.7332 501.333 44.5332 501.333 48.1332C501.467 53.1998 507.2 58.6665 512.533 58.6665C516.133 58.6665 522 52.3998 526.533 43.4665C530.667 35.4665 530.8 34.2665 529.333 30.6665C526.4 23.4665 517.333 21.5998 512.4 26.9332Z" fill="white"/>
<path d="M422.4 68.1332C415.867 69.5999 408.133 74.5332 403.467 80.1332C401.467 82.5332 395.6 92.7999 390.533 102.8C385.467 113.067 380 122.133 378.267 123.2C376.667 124.267 366.933 126.533 356.667 128C333.6 131.467 327.2 133.467 320.267 139.333C312.133 146.4 308 155.733 308 167.333C308 181.333 311.6 187.6 329.333 204.267C337.333 211.733 344.4 219.2 345.2 220.933C347.2 225.467 347.067 230.533 343.867 247.333C340.133 268 340.267 277.2 344.667 286.133C348.4 293.733 353.2 298.4 361.867 303.067C366 305.2 369.733 305.867 377.6 306C387.733 306 387.867 306 407.733 295.6C419.2 289.733 429.467 285.333 431.6 285.333C433.867 285.333 444 289.733 455.2 295.467C477.867 307.067 484.267 308.533 496.533 304.667C505.6 301.733 512.933 295.733 517.6 287.2C522.933 277.067 523.2 272.267 519.333 249.333C517.467 238 516.133 226.8 516.533 224.667C517.067 221.733 522 216 533.333 204.667C552 186.133 555.333 180.267 555.067 166.667C554.933 150 543.467 135.333 527.867 131.467C525.867 131.067 516 129.467 505.867 128C495.733 126.533 486 124.4 484.4 123.2C482.667 122.133 477.067 112.933 471.467 101.6C460.133 78.9332 454.267 72.2665 442.533 68.7999C434.8 66.5332 430 66.2665 422.4 68.1332ZM440.533 91.0665C442 92.1332 447.733 101.733 452.933 112.4C460.8 128 463.867 132.8 469.2 137.6C476.933 144.533 480.133 145.733 504.667 149.333C514.8 150.933 524.8 153.067 526.8 154C531.467 156.533 535.2 164.4 534.133 169.733C533.467 172.667 528.667 178.667 517.467 190C493.6 214.133 492.4 218 497.867 250.267C499.867 261.467 501.067 272.133 500.533 273.867C499.333 278.667 493.067 284 487.6 284.933C483.333 285.6 479.867 284.267 461.067 274.667L439.333 263.733L429.867 264.267C421.2 264.8 418.8 265.733 400.8 275.333C382.933 284.667 380.533 285.6 375.467 284.933C371.6 284.4 368.933 282.933 366.4 280C361.733 274.933 361.6 270.8 365.467 248.8C368.533 230.8 368.267 219.067 364.667 212C363.333 209.467 354.933 199.733 345.867 190.533C329.6 174 329.333 173.6 329.333 167.6C329.333 163.067 330.133 160.533 332.667 157.467C336.933 152.533 336.4 152.667 359.333 149.333C382 146 384.8 145.067 392.4 139.333C397.467 135.467 400.133 131.467 409.2 113.467C418.133 95.9999 420.8 91.8665 424.4 90.1332C429.2 87.7332 436 88.1332 440.533 91.0665Z" fill="white"/>
<path d="M271.867 91.8666C264.933 98.8 267.333 104.267 280.8 112C288.667 116.533 291.333 117.333 294.667 116.667C301.467 115.2 304.667 107.6 301.333 101.333C299.467 98 282.667 88 278.8 88C277.2 88 274 89.7333 271.867 91.8666Z" fill="white"/>
<path d="M578.667 89.7331C563.467 97.7331 560 100.933 560 106.933C560.133 112.8 567.067 118.133 572.667 116.8C577.467 115.6 592 106.533 593.333 103.866C596.267 98.5331 594.267 92.6664 588.4 89.5997C584.667 87.5997 582.8 87.5997 578.667 89.7331Z" fill="white"/>
<path d="M248.934 178.667C243.867 182.667 243.867 190.667 248.8 194.533C251.734 196.933 254.267 197.333 263.6 197.333C273.734 197.333 275.067 197.067 278 194C282 190.133 282.267 184.133 278.8 179.867C276.534 177.067 274.934 176.667 264.4 176.267C254 175.867 252.267 176.133 248.934 178.667Z" fill="white"/>
<path d="M585.2 179.867C583.067 182 581.333 184.8 581.333 186C581.333 189.2 584.933 195.6 587.333 196.533C591.333 198 611.2 197.333 613.467 195.6C619.467 191.067 619.6 183.333 613.733 178.667C610.933 176.533 608.267 176 599.733 176C589.733 176 588.933 176.267 585.2 179.867Z" fill="white"/>
<path d="M604 312.933C598.267 314 587.867 318.667 582 322.667C578.933 324.8 558 343.333 535.467 363.867L494.533 401.2L489.867 396C483.867 389.467 475.067 383.6 465.467 379.733C458.267 376.933 455.867 376.8 400 376L342 375.2L325.2 369.733C286.933 357.067 255.867 355.6 224.133 364.933C203.333 370.933 196.133 375.733 146.8 416.8L100.933 454.933L95.4667 453.2C87.2 450.4 75.0667 450.933 68.6667 454.267C65.7333 455.867 52.5333 468.133 39.2 481.6C13.3333 507.867 12 509.867 12 523.6C12 536.533 13.4667 538.267 86.2667 610.933C151.467 675.867 154.267 678.533 161.2 680.533C170.4 683.2 173.733 683.2 182.8 680.533C189.333 678.533 192.133 676.267 213.067 655.467C241.733 627.2 246 620 242.667 604.4C241.333 598.533 240 595.867 234.4 587.6C232.8 585.333 233.733 584.133 242.533 575.867C254 565.333 268.8 557.067 282.133 553.867C289.867 552.133 296.267 551.867 322 552.667C399.867 554.8 465.6 544.933 504.267 525.2C514.933 519.733 517.733 517.2 590.267 444.8C634.133 401.2 666.267 368.133 667.6 365.333C670.667 358.8 671.333 349.2 669.2 341.6C666 330 649.733 317.2 633.2 313.467C627.333 312.133 610.267 311.867 604 312.933ZM633.733 336C643.467 339.733 649.333 345.6 649.333 351.867C649.333 356.4 646 360 577.067 428.8C497.067 508.533 499.733 506.4 473.333 515.2C437.2 527.2 382.267 533.067 320.667 531.333C295.733 530.533 288.267 530.8 280.4 532.4C260 536.8 244.533 545.067 228.4 560.533L217.333 571.067L167.6 520.667C140.4 492.933 117.867 470 117.733 469.467C117.333 468.267 201.067 399.067 208.533 394.533C212 392.267 220 388.8 226.4 386.667C254.8 377.2 282.667 378.267 320 390C327.733 392.4 335.467 394.8 337.333 395.333C339.2 396 366.533 396.8 398 397.2L455.333 398L462.133 401.6C475.467 408.667 484 422.267 484 436.267C484 441.6 483.333 443.333 480.533 446L476.933 449.333H378.533C309.2 449.333 279.2 449.733 276.933 450.8C270.4 453.733 268.8 462.267 274 467.333L277.2 470.667H378.267H479.333L486 467.467C489.733 465.867 494.667 462.133 497.2 459.333C504.267 451.333 505.6 446.533 505.067 432.8L504.667 420.8L549.6 379.867C586.667 346 595.733 338.4 601.6 336.133C611.067 332.533 624.267 332.533 633.733 336ZM88.4 473.467C90 474.267 120.267 503.867 155.733 539.2C198.533 581.867 220.533 604.667 221.333 607.467C222.267 610.133 222.267 612.8 221.467 614.8C220.8 616.533 210.4 627.733 198.4 639.6C178.667 659.2 176 661.333 171.867 661.333C167.733 661.333 162.667 656.667 100.4 594.267C34.6667 528.667 33.3333 527.2 33.3333 522.133C33.3333 517.2 34.4 515.733 53.0667 496.933C77.7333 471.867 81.0667 469.733 88.4 473.467Z" fill="white"/>
</g>
<defs>
<clipPath id="clip0_8_17">
<rect width="682.667" height="682.667" fill="none"/>
</clipPath>
</defs>
</svg>
