<svg width="683" height="683" viewBox="0 0 683 683" fill="none" xmlns="http://www.w3.org/2000/svg">
<g clip-path="url(#clip0_1_3)">
<path d="M102.667 2.13335C86.9333 6.40001 74.4 16.8 66.9333 31.7333C62.1333 41.6 62 42.2667 62 56.5334C62 70.4 62.2667 71.8667 66.2667 80.2667C68.5333 85.2 72.9333 91.8667 76 95.0667L81.4667 101.067L73.7333 105.467C61.4667 112.4 46.6667 128.133 40.1333 141.467C32.2667 157.467 30.4 168.133 30.9333 194C31.3333 214.667 31.4667 215.6 35.0667 221.733C39.7333 229.733 47.4667 235.333 56.1333 237.2C66.2667 239.467 94 239.067 98.5333 236.667C104.8 233.467 106 226.267 100.933 221.6C98.1333 218.933 96.4 218.667 80.2667 218.667C50.9333 218.667 50 217.6 50.9333 186.267C51.4667 169.333 52.1333 164.667 54.6667 158C63.2 135.6 80.2667 120.667 103.6 115.2C138.267 107.067 175.2 130.933 182.533 166.4C184.4 175.6 184.4 208.667 182.533 212.267C179.867 217.2 173.333 218.667 154.133 218.667C136.4 218.667 136.133 218.667 133.467 222.133C128.933 227.867 130 233.6 136.133 236.667C140.667 239.067 168.4 239.467 178.667 237.2C187.867 235.2 195.867 228.933 200.4 220.133C203.867 213.067 204 212.133 204 191.333C204 166.267 201.867 155.067 193.733 139.6C187.733 128 172.133 111.6 160.933 105.333L153.333 101.067L159.333 94.4C187.733 62.8 172.667 12.8 131.333 2.00001C121.6 -0.533319 112.267 -0.399986 102.667 2.13335ZM134.133 24.4C156.8 35.8667 160.667 67.2 141.733 84C123.467 100.133 95.3333 94.5334 84.6667 72.6667C81.4667 66.2667 81.0667 64.1334 81.4667 54.9334C81.8667 46.1333 82.6667 43.4667 86 37.8667C90.2667 31.0667 99.7333 23.6 107.2 21.3333C114.133 19.2 126.667 20.6667 134.133 24.4Z" fill="white"/>
<path d="M540 2.39999C534 5.33332 529.867 11.7333 528.8 19.6C526.933 32 525.467 33.2 518.133 27.4667C508.133 19.8667 501.067 18.4 492.933 21.8667C490.533 22.8 483.2 29.3333 476.4 36.2667C460.267 52.8 458.933 59.0667 468.8 72.9333C475.867 82.9333 475.333 84.2667 462.267 86.1333C454.533 87.2 448.4 91.2 445.2 97.3333C443.067 101.067 442.667 104.933 442.667 118.533C442.667 143.6 446.267 149.2 464.667 152.533C474 154.267 475.2 156.533 470.267 163.067C458.4 178.667 460 186.533 478.4 204.4C495.067 220.533 501.467 221.867 516 212C525.2 205.733 527.2 206.533 528.533 216.4C529.6 225.6 532.8 231.467 538.533 234.933C542.933 237.733 544.933 238 562.267 238C579.333 238 581.467 237.733 584.933 235.2C590.8 230.8 594.267 224.667 595.333 216.667C596.533 206.533 598.8 205.6 606.933 211.6C621.067 221.867 628.533 220.667 644.667 205.067C662.933 187.6 664.933 179.733 654.8 165.067C648.533 155.867 649.2 154.4 660.667 152.133C669.2 150.533 673.467 148 677.867 142.133C680.267 138.933 680.667 136.133 681.067 121.333C681.6 106.533 681.2 103.467 678.933 98.1333C675.6 90.8 670.133 87.0667 660.4 85.8667C656.4 85.4667 652.267 84.1333 651.2 83.0667C649.6 81.3333 650 80.1333 654.533 73.6C665.067 58.5333 663.2 51.2 644.267 33.0667C628.133 17.6 621.333 16.2667 607.867 26.1333C598.933 32.6667 597.2 32 595.2 20.9333C591.867 3.33332 586.667 -1.24127e-05 561.733 -1.24127e-05C548.133 -1.24127e-05 543.733 0.533321 540 2.39999ZM575.067 22.2667C575.467 23.6 576.133 27.3333 576.533 30.6667C577.733 39.3333 581.333 44.4 588.8 48C599.067 52.9333 604.933 52.4 614.8 45.6L623.067 39.8667L632.133 48.8L641.2 57.7333L635.867 65.4667C628.8 75.4667 628 81.0667 632.4 90.9333C636.533 100 640.267 102.667 651.867 104.667L660.667 106L661.067 118.933L661.467 131.733L657.733 132.533C655.733 132.933 651.467 133.6 648.267 134C640.8 135.2 635.733 139.6 632 148.267C628.133 157.2 628.933 163.333 635.2 171.867C637.867 175.467 640 178.8 640 179.467C640 180.933 623.733 197.333 622.4 197.333C621.867 197.333 618.4 195.2 614.667 192.533C606 186.267 599.867 185.467 591.067 189.333C581.6 193.333 578.933 196.667 576.667 207.467C575.6 212.533 574.667 217.067 574.667 217.6C574.667 218.267 569.067 218.667 562.133 218.667C548.133 218.667 548.933 219.333 547.333 207.867C546 198.667 542.4 193.733 534.267 190C524.133 185.2 519.2 185.6 509.867 192C505.467 194.933 501.333 197.333 500.667 197.333C499.867 197.333 495.467 193.467 490.8 188.8L482.533 180.4L487.867 172.667C494.933 162.667 495.6 158.533 492 148.933C488 138.267 483.867 135.467 467.6 132.667L462.533 131.867L462.933 119.067L463.333 106.133L472.267 104.533C483.467 102.4 487.067 100.133 490.8 92.2667C495.733 82.2667 495.067 75.4667 488.4 66L482.667 58L491.867 48.8L501.067 39.6L506.4 43.8667C517.733 52.6667 523.867 53.4667 536 47.3333C543.067 43.7333 546.133 39.0667 547.333 30C548.667 19.4667 548 20 561.867 20C572.8 20 574.533 20.2667 575.067 22.2667Z" fill="white"/>
<path d="M546.4 75.3333C526.8 82.8 515.067 100.8 516.267 121.733C517.2 138.933 526.8 153.2 542.667 161.067C548.933 164.133 551.6 164.667 562 164.667C572.4 164.667 574.933 164.133 581.467 160.933C590.4 156.667 600.4 146.4 604.4 137.6C608.933 128 608.533 110 603.867 99.8667C599.467 90.5333 591.733 82.6667 582.4 77.8667C576.533 74.8 573.333 74.1333 563.333 73.7333C555.2 73.4667 549.733 74 546.4 75.3333ZM576.267 97.2C593.2 108.933 591.2 134.4 572.667 142.8C562.533 147.467 550.267 144.933 542.4 136.533C531.733 125.067 534.533 105.733 547.867 97.0667C553.333 93.6 554.933 93.2 562.8 93.6C569.333 94 572.8 94.9334 576.267 97.2Z" fill="white"/>
<path d="M360.667 80C355.867 85.3333 357.467 90 367.467 100.133L376.533 109.333H325.867H275.067L272.267 112.4C268.4 116.533 268.533 122 272.667 126L275.867 129.333H325.6H375.2L367.733 136.933C363.6 141.2 359.6 146.133 358.933 148C357.333 152.133 359.867 159.2 363.333 160.533C369.733 162.933 372.133 161.467 389.6 144.267C408 126.267 411.2 122 409.867 116.8C409.467 115.067 400.933 105.467 390.8 95.4667C374.267 79.0667 372 77.3333 367.733 77.3333C364.8 77.3333 362.267 78.2667 360.667 80Z" fill="white"/>
<path d="M316 224.667C295.867 228.667 273.067 240.533 257.733 254.933C216 294.4 208.8 359.333 240.933 407.6C257.733 432.933 286.933 452.4 317.067 458.133C322.4 459.2 332.933 460 340.133 460C370.8 460 398.133 449.2 420.4 428C438 411.333 448.667 393.733 454.933 371.333C457.333 362.533 457.867 357.2 457.867 340.667C457.733 322.8 457.333 319.333 454.267 308.933C447.467 286.667 437.6 270.933 420.4 254.667C404.4 239.467 384.4 228.933 363.733 224.8C351.467 222.267 328.267 222.267 316 224.667ZM370 247.067C403.733 258.133 429.333 286.8 436.533 321.6C446.667 370.533 418 419.467 370 435.6C360.4 438.933 357.467 439.2 340 439.2C318 439.333 311.333 437.733 294.667 429.2C239.467 400.667 223.733 330.667 261.2 281.067C270 269.467 281.867 260 296.667 252.533C312.8 244.533 322.133 242.667 342.667 243.2C356.267 243.467 361.333 244.267 370 247.067Z" fill="white"/>
<path d="M371.867 290.533C365.067 292.667 361.733 295.333 345.733 311.067L329.467 327.067L322.267 320.933C313.333 313.2 307.333 310.667 298.667 310.667C286.667 310.667 276.267 317.333 270.267 328.667C266.533 335.867 266.533 348.133 270.267 355.333C271.867 358.267 282.267 369.733 293.6 380.8C315.067 401.867 318.4 404 330.133 404C340.933 404 346.933 399.467 378.8 367.2C412.133 333.467 413.333 331.6 411.6 317.2C409.333 298.267 389.867 285.2 371.867 290.533ZM388.133 313.2C390.8 316 392 318.4 392 321.467C392 325.467 389.067 328.933 362.933 354.933C336.533 381.467 333.467 384 329.333 384C325.333 384 322.8 382 306.133 365.467C288.8 348.267 287.467 346.533 287.467 341.867C287.467 338.133 288.4 336.267 291.2 333.867C297.733 328.133 301.467 329.333 314 341.333C322.4 349.333 326 352 328.8 352C331.733 352 336.533 348 352.533 332.133C363.6 321.333 373.867 311.733 375.333 310.933C379.867 308.4 384 309.2 388.133 313.2Z" fill="white"/>
<path d="M555.333 274L552 277.2V327.467V377.733L542.8 368.933C535.467 361.867 532.8 360 529.467 360C524 360 520 364.133 520 369.733C520 373.6 522.267 376.267 539.067 393.067C554.8 408.667 558.933 412 562 412C565.2 412 569.2 408.667 584.933 392.933C601.067 376.8 604 373.333 604 369.867C604 364.667 599.2 360 594 360C590.933 360 588 362 581.067 368.933L572 377.867V327.6V277.2L568.667 274C566.933 272.133 563.867 270.667 562 270.667C560.133 270.667 557.067 272.133 555.333 274Z" fill="white"/>
<path d="M46 445.2C35.6 447.867 25.7333 456.933 22.9333 466.533C21.8667 469.733 21.3333 482.133 21.3333 499.2C21.3333 526.667 21.3333 526.8 24.6667 530C28.8 534.267 33.8667 534.267 38 530C41.3333 526.8 41.3333 526.667 41.3333 499.467C41.3333 472.533 41.3333 472.133 44.5333 468.4L47.7333 464.667H117.333H186.933L190.133 468.4L193.333 472.133V567.467V662.667H158.667H124V644.267C124 626.667 123.867 625.6 120.933 622.933C116.533 618.8 110.267 619.067 106.8 623.467C104.267 626.667 104 628.8 104 644.8V662.667H72.6667H41.3333V614.667V566.533L38 563.333C36.2667 561.467 33.2 560 31.3333 560C29.4667 560 26.4 561.467 24.6667 563.333L21.3333 566.533V614.667V662.667H14.8C6.13333 662.667 2.13333 665.867 2.13333 672.667C2.13333 676.267 2.93333 678.4 5.2 680.133C8.13333 682.533 12.8 682.667 117.6 682.667H226.8L230 679.333C234.267 675.2 234.267 670.133 230 666C227.467 663.333 225.467 662.667 220 662.667H213.333V566C213.333 459.333 213.733 464 204.933 454.933C202.533 452.4 198.267 449.2 195.333 447.6C190.133 444.667 189.067 444.667 120 444.4C81.4667 444.267 48.2667 444.667 46 445.2Z" fill="white"/>
<path d="M486 445.2C480 446.667 476.8 448.8 472.267 453.867C466.267 460.667 465.333 466 465.333 492.267C465.333 515.067 465.467 516 468.4 519.467C472.533 524.133 479.333 524.533 482.933 520.133C485.067 517.333 485.333 514.4 485.333 493.2C485.333 471.067 485.467 469.2 488 466.667C490.533 464.133 492.4 464 533.6 464H576.533L586.933 474.4L597.333 484.8V551.067C597.333 615.067 597.2 617.333 594.8 618.667C593.067 619.467 573.867 620 541.467 620C492.4 620 490.533 619.867 488 617.333C485.467 614.8 485.333 612.933 485.333 585.333C485.333 557.733 485.2 555.867 482.667 553.333C478.667 549.333 471.6 549.733 468.133 554.133C465.467 557.467 465.333 559.333 465.333 586.533C465.333 603.467 466 617.467 466.8 620.667C468.8 627.6 477.733 636.533 484.667 638.533C487.6 639.333 494.4 640 499.733 640H509.333V651.2C509.333 657.467 510 664.133 510.8 666.267C512.8 671.6 518.4 677.2 524.667 680.133C529.6 682.4 534.267 682.667 584.8 682.667H639.467L646.133 679.333C654.267 675.333 659.467 667.733 660.667 658.133C661.067 654.4 661.333 618.933 661.067 579.333C660.667 512 660.533 507.067 658.133 502.667C652 491.2 645.867 488 629.333 488C618.133 488 617.333 487.867 617.333 485.333C617.333 479.467 612.933 472.533 602.267 461.733C584.8 443.733 588.667 444.667 535.333 444.4C510.4 444.267 488.267 444.667 486 445.2ZM640 511.467C640.8 513.467 641.333 542.933 641.333 585.733C641.333 647.867 641.067 657.067 639.2 659.733L637.2 662.667H584.8C546 662.667 532.133 662.267 530.933 661.067C530 660.133 529.333 655.467 529.333 649.733V640H561.067C579.733 640 594.8 639.333 598 638.533C605.467 636.533 611.867 631.333 614.8 624.8C617.067 619.733 617.333 615.2 617.333 563.6V508H628C638.267 508 638.8 508.133 640 511.467Z" fill="white"/>
<path d="M66.8 491.467C63.6 495.467 63.3333 497.2 65.4667 501.733C68.1333 507.733 70.9333 508 117.333 508C163.733 508 166.533 507.733 169.2 501.733C171.333 497.2 171.067 495.467 167.867 491.467L165.2 488H117.333H69.4667L66.8 491.467Z" fill="white"/>
<path d="M512 490.667C508.4 494.267 508.533 501.467 512.133 504.8C514.667 507.067 517.6 507.333 539.067 507.733C565.333 508.267 568.133 507.867 572 504C575.467 500.533 575.333 496 571.867 491.467L569.2 488H541.867C516.4 488 514.533 488.133 512 490.667Z" fill="white"/>
<path d="M288.4 540.4C263.333 565.467 263.333 562.533 287.733 586.933C304.4 603.6 306.667 605.333 310.933 605.333C316.533 605.333 321.333 600.8 321.333 595.467C321.333 592.667 319.067 589.333 312.4 582.533L303.6 573.333H353.2C385.6 573.333 403.733 572.8 405.467 571.867C411.867 568.533 411.333 557.867 404.533 554.8C402.267 553.867 385.867 553.333 352.4 553.333H303.6L312.4 544.133C322.4 533.867 323.467 530 318 524.667C311.733 518.267 309.2 519.6 288.4 540.4Z" fill="white"/>
<path d="M66.8 535.467C63.6 539.467 63.3333 541.2 65.4667 545.733C68.1333 551.733 70.9333 552 117.333 552C163.733 552 166.533 551.733 169.2 545.733C171.333 541.2 171.067 539.467 167.867 535.467L165.2 532H117.333H69.4667L66.8 535.467Z" fill="white"/>
<path d="M512 534.667C508.4 538.267 508.533 545.467 512.133 548.8C514.667 551.067 517.6 551.333 539.067 551.733C565.333 552.267 568.133 551.867 572 548C575.467 544.533 575.333 540 571.867 535.467L569.2 532H541.867C516.4 532 514.533 532.133 512 534.667Z" fill="white"/>
<path d="M66.8 579.467C63.0667 584.267 63.3333 587.467 67.8667 592.133L71.7333 596H116.533C163.733 596 166.533 595.733 169.2 589.733C171.333 585.2 171.067 583.467 167.867 579.467L165.2 576H117.333H69.4667L66.8 579.467Z" fill="white"/>
<path d="M512 578.667C508.4 582.267 508.533 589.467 512.133 592.8C514.4 594.933 517.467 595.467 529.467 595.733L544 596.267L548 592.267C552.667 587.467 553.067 584.267 549.2 579.467C546.533 576.133 546.133 576 530.533 576C516.4 576 514.4 576.267 512 578.667Z" fill="white"/>
</g>
<defs>
<clipPath id="clip0_1_3">
<rect width="682.667" height="682.667" fill="white"/>
</clipPath>
</defs>
</svg>
