<svg width="683" height="683" viewBox="0 0 683 683" fill="none" xmlns="http://www.w3.org/2000/svg">
<path d="M309.2 39.4669C300.8 42.0003 291.734 50.2669 288 58.9336C283.2 70.2669 285.467 85.3336 293.6 94.1336L296.267 97.0669L288.267 101.334C278.8 106.267 269.867 115.2 263.467 125.734C258.934 133.467 254.667 147.867 254.667 155.867C254.667 164.267 252.667 164 319.867 164C365.467 164 381.2 163.6 382.4 162.4C386.4 158.4 383.067 140.267 375.6 126.267C370.934 117.2 357.734 104.4 348.8 100.134L342.667 97.0669L346.534 92.2669C356.934 78.8003 355.734 61.0669 343.334 48.4003C333.467 38.4003 322.267 35.3336 309.2 39.4669ZM330.667 54.5336C342.534 63.2003 343.2 78.9336 332.134 88.4003C326 93.4669 318.667 94.2669 311.067 90.4003C302.134 86.0003 299.334 81.6003 299.334 72.0003C299.334 62.5336 302.134 58.1336 310.8 53.6003C317.467 50.1336 325.067 50.4003 330.667 54.5336ZM340.267 110.934C354.267 117.334 366 131.334 369.067 145.067L370.4 150.667H319.734H268.934L269.734 145.867C272.267 130.267 287.2 114.134 304.4 108.534C313.467 105.6 331.067 106.8 340.267 110.934Z" fill="white"/>
<path d="M484.667 70.5336C475.067 72.5336 466.533 74.6669 465.6 75.2003C463.333 76.5336 463.6 83.3336 466.133 85.4669C467.733 86.8003 470 86.9336 477.067 85.6003C482 84.8003 486.133 84.4003 486.4 84.5336C487.333 85.6003 456.8 118.134 430.133 144.667C319.733 254.4 186.267 342.267 44.4001 398.534C31.6001 403.734 29.7335 405.334 31.4668 410.4C33.4668 416 38.0001 415.6 56.9335 407.867C175.333 359.867 288.133 289.867 389.2 201.734C410.667 182.934 464.667 129.734 483.867 108.267L496.133 94.5336L495.733 103.067C495.333 112.134 497.067 116 501.2 116C506.933 116 508 113.2 510 94.6669C512.4 72.0003 512.4 71.3336 509.867 68.8003C507.2 66.1336 505.6 66.1336 484.667 70.5336Z" fill="white"/>
<path d="M186 120.534C182.4 122.134 177.067 126 174.4 129.067C169.733 134.267 165.333 144.934 165.333 151.334C165.333 156.667 169.467 167.867 172.8 172C174.8 174.267 176.133 176.267 175.867 176.534C175.6 176.667 172.4 178.534 168.667 180.667C149.2 191.867 136 213.067 136 233.2C136 239.734 136.533 241.467 138.533 242.667C140.267 243.467 162.133 244 200.267 244C248 244 260 243.6 262 242.134C267.2 238.267 263.067 215.867 254.533 202.4C249.467 194.667 239.867 185.6 231.333 180.667C227.6 178.534 224.4 176.667 224.133 176.534C223.867 176.267 225.2 174.267 227.2 172C230.533 167.867 234.667 156.667 234.667 151.334C234.667 149.734 233.733 145.334 232.533 141.467C228.533 127.6 214.533 117.334 200 117.334C195.067 117.334 190.4 118.4 186 120.534ZM210.8 133.734C217.2 138 221.733 147.2 220.667 154C219.067 164.267 210.267 172 200 172C193.2 172 187.733 169.334 183.467 163.6C173.333 150.267 183.2 130.667 200 130.667C204.267 130.667 207.733 131.6 210.8 133.734ZM209.067 186.667C224.667 189.6 238.533 200 245.333 213.734C247.467 218.267 249.733 224 250.133 226.267L251.067 230.667H200H149.067L149.867 226.267C151.467 218 158.667 205.6 165.333 199.6C178.133 188 193.067 183.6 209.067 186.667Z" fill="white"/>
<path d="M426.934 188.267C425.734 189.467 425.334 209.6 425.334 270.8V351.734L416.667 358.534L408 365.334V320.267C408 281.734 407.734 274.8 405.867 272.267C403.867 269.334 403.6 269.334 367.467 269.334C333.867 269.334 330.934 269.467 328.934 271.734C326.8 274 326.667 285.467 326.667 409.6C326.667 539.067 326.8 545.067 329.067 547.067C331.067 548.934 334.667 549.334 349.734 549.334H367.867L373.2 559.6C395.334 602 437.067 632.8 484.934 642.134C498.934 644.934 528.534 645.2 541.2 642.8C617.467 628 670.667 567.734 674.134 492C676.267 447.467 660.8 406.8 629.734 374.534C599.867 343.6 564.934 327.467 522.667 325.467L506 324.667L505.6 257.467C505.467 210.534 504.8 189.734 503.867 188.4C501.734 186 429.334 185.867 426.934 188.267ZM492 263.2V326.4L486.4 327.334C476.4 329.067 458.534 334.667 448.4 339.334L438.667 343.867V271.867V200H465.334H492V263.2ZM394.667 330.534V378.4L386.267 389.6C363.867 419.334 353.467 453.734 355.067 491.867C355.734 507.734 358.667 524.8 362 533.734C362.8 535.734 361.867 536 351.467 536H340V409.334V282.667H367.334H394.667V330.534ZM544.134 341.334C588 350.267 625.467 379.067 645.867 419.6C664.4 456.534 666.134 502 650.4 539.734C629.334 590.267 584.534 624.134 530 630.667C493.2 635.067 452.4 623.067 422.534 598.934C389.467 572.134 370.134 533.867 368.4 491.334C367.6 471.867 369.734 455.734 375.334 438.667C391.467 389.867 434.267 351.6 484 341.467C488 340.667 492.534 339.734 494 339.467C502.8 337.734 531.867 338.8 544.134 341.334Z" fill="white"/>
<path d="M491.867 370.134C490.8 371.334 489.067 376.8 488 382.267L486 392.267L477.6 395.6L469.333 398.934L460.933 393.467C456.267 390.4 450.933 388 449.2 388C446.667 388 442.133 391.734 431.6 402.534C423.733 410.4 417.333 418 417.333 419.334C417.333 420.667 419.867 425.6 422.933 430.4L428.533 438.934L426 446.267C424.533 450.4 422.667 454.4 421.867 455.334C420.933 456.134 416 457.6 410.8 458.534C397.6 460.934 397.333 461.467 397.333 484.8C397.333 507.867 397.6 508.4 411.867 511.334C417.333 512.534 421.867 513.6 422 513.734C422.133 513.867 423.733 517.6 425.6 522L428.933 530L423.2 538.667C420 543.467 417.333 548.534 417.333 550C417.333 553.2 446.4 582.667 449.467 582.667C450.533 582.667 455.333 580 460.267 576.667L469.333 570.667L477.734 574L486.267 577.467L488 587.067C490.534 601.6 490 601.334 514.8 601.334C539.334 601.334 538.534 601.867 541.334 586.4L542.934 577.467L551.467 574.134L560 570.667L569.2 576.8C575.467 580.934 579.334 582.667 580.934 582.134C584.667 580.934 612 552.8 612 550.134C612 548.934 609.334 544 606.134 539.2L600.267 530.4L603.6 522.267C605.467 517.734 607.067 513.867 607.2 513.734C607.334 513.6 611.867 512.534 617.334 511.334C622.667 510.267 627.867 508.667 628.934 507.867C631.334 505.734 631.467 463.6 629.067 461.6C628.134 460.934 623.734 459.6 619.334 458.667C614.934 457.867 610.4 456.934 609.067 456.534C607.867 456.134 605.467 452.134 603.6 447.6L600.267 439.467L606.134 430.667C609.334 426 612 420.934 612 419.467C612 415.6 584 388 580.134 388C578.267 388 573.067 390.534 568.4 393.6L559.867 399.067L551.6 395.734L543.334 392.267L541.067 381.867C539.734 375.467 538 370.8 536.534 369.734C534.8 368.534 528.4 368 513.867 368C496.8 368 493.334 368.4 491.867 370.134ZM529.2 390.534C530.134 395.734 531.867 400.667 532.934 401.6C535.467 403.734 558.4 413.334 560.934 413.334C562 413.334 566.267 410.934 570.534 408.134L578.267 402.8L587.334 412L596.4 421.2L591.6 428.534C588.934 432.667 586.667 437.2 586.667 438.667C586.667 443.067 595.867 464.4 598.667 466.934C600.134 468.134 604.134 469.467 607.734 470C617.467 471.334 617.467 471.334 617.067 485.334L616.667 497.867L608 499.6C603.334 500.534 598.667 502.134 597.734 503.067C595.6 505.334 586.667 528 586.667 531.334C586.667 532.8 588.8 537.2 591.334 540.934C593.867 544.8 596 548.4 596 548.934C596 549.6 592.134 553.867 587.467 558.534L578.8 567.067L570.134 561.334L561.334 555.734L549.067 560.667C531.2 567.734 531.2 567.734 529.2 578.667L527.6 588H514.667H501.734L500 579.6C499.2 575.067 497.867 570.4 497.334 569.334C496.667 568.134 489.867 564.667 482.134 561.467L468 555.734L459.2 561.334L450.533 567.067L441.867 558.534C437.2 553.867 433.333 549.467 433.333 548.667C433.333 547.867 435.467 544.134 438 540.4C440.533 536.534 442.667 532 442.533 530.4C442.533 528.667 440 521.6 436.933 514.667L431.333 502L424 500.267C420 499.334 415.333 498.267 413.733 498C410.8 497.334 410.667 496.667 410.667 484.8V472.134L418.4 470.8C430.533 468.4 431.733 467.334 437.467 453.467C440.4 446.667 442.667 439.867 442.667 438.4C442.667 437.067 440.533 432.8 438 428.934C435.467 425.2 433.333 421.467 433.333 420.667C433.333 419.867 437.2 415.467 441.867 410.8L450.4 402.4L458.4 407.867C462.933 410.8 467.333 413.334 468.4 413.334C470.533 413.334 494.267 403.334 496.667 401.334C497.467 400.667 498.934 395.867 499.867 390.667L501.6 381.334H514.534H527.6L529.2 390.534Z" fill="white"/>
<path d="M504 422.8C484.534 426 467.067 439.467 457.734 458.267C452.667 468.4 452.667 468.667 452.667 484.533C452.667 500.4 452.8 500.8 457.6 511.067C466.934 530.533 484.534 543.867 505.334 547.067C549.467 553.867 586.667 512.267 575.334 468.667C569.2 445.2 548.267 426.533 524 422.667C514.267 421.2 514.134 421.2 504 422.8ZM532.934 438.933C542.4 442.4 553.734 453.067 559.067 463.2C563.067 470.8 563.334 472.267 563.334 484.667C563.334 496.667 562.934 498.8 559.467 506C541.067 543.333 488.534 543.867 470.4 506.933C466.267 498.667 466 497.067 466 484.667C466 472.8 466.4 470.533 469.734 463.733C481.334 440 508 429.6 532.934 438.933Z" fill="white"/>
<path d="M57.6002 194.134C38.2669 203.734 32.5336 228.667 45.8669 245.6L49.0669 249.734L42.2669 253.067C23.4669 262.4 8.00023 287.6 8.00023 308.667C8.00023 317.467 7.06689 317.334 72.6669 317.334C138.4 317.334 137.334 317.467 137.334 308.534C137.334 300 133.2 285.734 128.534 277.734C123.067 268.534 111.334 257.2 102.667 252.934L96.4002 249.734L100.134 244.667C112.8 227.734 106.534 202.667 87.3336 193.867C77.8669 189.467 66.8002 189.467 57.6002 194.134ZM84.1336 207.2C96.8002 215.867 96.0002 235.067 82.6669 242.534C65.2002 252.4 45.4669 233.467 54.1336 215.067C57.4669 208.267 64.5336 204 72.6669 204C77.6002 204 80.6669 204.934 84.1336 207.2ZM93.7336 263.734C105.867 269.467 112.534 275.867 117.867 287.067C120.4 292.4 122.667 298.134 122.934 300L123.334 303.334L73.0669 303.734L22.6669 304V300.134C22.6669 294.134 31.4669 278 37.7336 272.534C44.1336 267.067 53.7336 261.867 60.9336 260C70.0002 257.734 84.5336 259.334 93.7336 263.734Z" fill="white"/>
<path d="M231.2 337.867C228.667 339.733 228.667 342.4 228.667 442.667C228.667 542.933 228.667 545.6 231.2 547.467C233.334 548.933 240.8 549.333 269.467 549.333C300.134 549.333 305.467 549.067 307.2 547.2C309.067 545.333 309.334 534 309.334 442.8C309.334 345.333 309.2 340.267 306.934 338.267C304.8 336.267 300.134 336 269.2 336C240.8 336 233.334 336.4 231.2 337.867ZM296 442.667V536L269.067 535.733L242 535.333L241.6 444C241.467 393.733 241.6 351.867 242 350.933C242.4 349.733 249.2 349.333 269.334 349.333H296V442.667Z" fill="white"/>
<path d="M132.934 393.067C130.934 395.333 130.667 402.667 130.667 470.4C130.667 536.533 130.934 545.333 132.8 547.2C134.534 549.067 139.867 549.333 170.134 549.333C192 549.333 206.534 548.8 208.134 548C210.534 546.667 210.667 544.4 210.667 470C210.667 395.6 210.534 393.333 208.134 392C206.534 391.2 192 390.667 170.267 390.667C137.867 390.667 134.934 390.8 132.934 393.067ZM197.334 470V536H170.667H144V470V404H170.667H197.334V470Z" fill="white"/>
<path d="M33.3333 438.533C32.5333 440.267 32 459.867 32 493.067C32 541.6 32.1333 545.067 34.4 547.067C36.5333 549.067 41.2 549.333 72.9333 549.333C106.133 549.333 109.067 549.2 111.067 546.933C113.067 544.667 113.333 538.933 113.333 492.8C113.333 459.733 112.8 440.267 112 438.533C110.667 436.133 108.8 436 72.6667 436C36.5333 436 34.6667 436.133 33.3333 438.533ZM100 492.667V536H72.6667H45.3333V492.667V449.333H72.6667H100V492.667Z" fill="white"/>
</svg>
