<svg width="683" height="683" viewBox="0 0 683 683" fill="none" xmlns="http://www.w3.org/2000/svg">
<g clip-path="url(#clip0_8_3)">
<path d="M536 2.93337C532.667 4.6667 528.667 8.00004 527.067 10.5334L524 15.0667V75.4667V136H358.933C245.333 136 191.333 136.4 186 137.467C171.067 140.267 159.333 148.933 152.533 162.267C148.8 169.733 148.667 170.667 148.267 192.8L147.733 215.733L116.267 216.4C82.1334 217.067 76.8001 217.867 60.2668 225.467C39.8668 234.667 21.4667 252.267 11.4667 272.267C0.800081 293.733 0.666748 294.533 0.666748 356C0.666748 408.933 0.666748 410.133 3.60008 416.4C8.00008 425.733 17.3334 435.067 26.6667 439.2C32.9334 442 34.8001 443.6 35.3334 446.4C43.0668 484.4 58.2668 507.733 84.9334 522.8L90.6668 526V542.267V558.667L86.9334 559.333C61.0668 564.8 38.9334 578 23.6001 597.333C9.20008 615.2 1.06675 636.8 0.800081 657.6C0.666748 670.133 2.00008 673.467 9.86675 679.2C13.4667 682 14.6667 682 134.8 682.4C268.933 682.8 261.733 683.2 268.8 674C272 669.867 272.533 667.733 272.667 660.8C272.667 656.4 272.133 649.2 271.6 645.067L270.533 637.333H472.667H674.933L678.8 633.467C680.933 631.333 682.667 628.267 682.667 626.667C682.667 622.8 679.2 616.533 676.667 615.467C675.467 615.067 644.267 614.667 607.333 614.667H540.133L542.133 609.867C547.6 596.667 547.067 585.2 540.533 577.333C534.8 570.533 532.8 570 510 569.333C484.8 568.533 480 566.933 468 554.667L460.667 547.333L514 546.667L567.333 546L575.733 542.133C586.267 537.2 596 526.933 599.867 516.667C602.533 509.6 602.667 506.667 602.667 446.933V384.8L641.2 346C673.333 313.867 680 306.4 681.333 301.733C684.4 291.6 679.867 280.667 670.667 275.867C666.933 273.867 663.067 273.333 651.733 273.333H637.333V146.933C637.333 68.2667 636.8 18.9334 636 16C634.533 10.5334 627.867 3.4667 622.267 1.4667C619.867 0.533371 604 3.76437e-05 580.133 3.76437e-05C543.067 3.76437e-05 541.733 0.133371 536 2.93337ZM614.667 148V273.333H595.333C576.4 273.333 575.733 273.467 572.667 276.667C570.667 278.667 569.333 281.467 569.333 283.867C569.333 295.6 570.8 296 618.933 296H659.333L619.6 335.6L579.867 375.333L541.467 336L503.067 296.667L521.2 296C531.2 295.6 540.133 294.8 541.2 294.133C546.667 290.667 546.667 290.133 546.667 153.333V22.6667H580.667H614.667V148ZM523.333 170.667V182L365.333 182.667L207.333 183.333L202.8 186.533C196.933 190.8 193.333 198.8 193.333 208.267V216H182H170.667V196.267C170.667 178.4 170.933 176.133 173.733 171.467C177.2 165.2 182 161.467 188.133 160C190.667 159.467 267.067 159.067 358 159.2L523.333 159.333V170.667ZM523.733 238.933L523.333 272.667L508 273.333C487.467 274.267 482.4 277.2 478.667 290.533C476 300.267 478 303.467 507.467 333.867L534.667 362V391.6V421.333H401.2H267.733L268.667 418.267C273.2 404 273.333 401.6 273.333 358.4C273.333 331.467 272.8 312.133 271.867 307.733C269.467 296.533 264.133 286.667 256.133 278.533C247.733 270.133 237.867 265.067 225.733 262.667C221.067 261.733 217.333 260.8 217.333 260.533C217.333 260.267 219.2 257.467 221.333 254.4C229.6 243.067 229.333 231.733 220.533 222.933C216.667 219.067 216 217.467 216 211.867V205.333H370H524L523.733 238.933ZM204 239.467C204 239.867 200.4 244.933 196 250.667L188 261.067L171.2 261.6C154.667 262 154.4 262 151.2 265.733C147.333 270.267 147.067 275.867 150.533 280.133C153.067 283.333 153.2 283.333 188.933 284C223.2 284.667 224.933 284.8 230.667 287.867C238.933 292.133 242.4 295.6 246.4 303.333C249.333 309.2 249.867 312 250.4 326.267L250.933 342.667L243.067 341.867C232.133 340.667 222.667 343.867 215.333 351.333C208.8 357.733 206.133 364.533 204.267 379.067C201.867 397.867 192.133 408.133 169.6 415.467C159.2 418.933 156.267 419.333 140.667 419.2C126.933 419.2 121.067 418.533 112.8 416.267C98.1334 412.133 88.4001 407.2 80.9334 400.133C72.6668 392.4 69.6001 386.267 68.1334 374.933C66.6668 363.067 64.0001 357.333 57.3334 350.8C50.2668 343.867 40.1334 340.667 29.7334 341.867L22.6667 342.667V327.067C22.6667 297.867 29.2001 280.133 45.8668 263.333C58.8001 250.267 72.5334 242.933 89.3334 240C96.1334 238.8 204 238.267 204 239.467ZM39.0668 365.467C43.3334 367.467 44.9334 370.933 45.8668 380.267C46.2668 384.533 47.8668 391.067 49.3334 394.933C63.7334 433.2 130.533 454 180.8 435.733C208.933 425.6 223.467 408.533 227.2 381.6C228.133 375.2 229.2 369.2 229.733 368.4C231.2 366 238.533 363.6 242 364.533C248.133 366.133 250.667 372.4 250.667 386.667C250.667 407.867 246.933 415.067 233.6 420C221.067 424.667 217.333 429.467 214.8 444.4C212.667 456.4 207.333 471.067 201.733 479.733C188.667 500.4 165.333 511.867 136.933 512C94.6668 512.133 67.2001 489.467 58.9334 447.733C55.4668 430.133 53.4668 427.067 41.8668 421.333C30.0001 415.467 28.1334 414 25.2001 407.333C23.3334 403.2 22.6667 398.667 22.6667 386.933C22.6667 372 22.6667 371.733 26.5334 367.867C30.6667 363.733 33.8667 363.067 39.0668 365.467ZM574.533 397.333L580 398.8V432.667V466.667H406.667C311.333 466.667 233.333 466.267 233.333 465.867C233.333 465.333 233.867 462.8 234.667 460.133C235.333 457.467 236.533 452.8 237.333 449.6L238.8 444H387.733C481.333 444 538.4 443.467 541.333 442.667C546.8 441.2 553.867 434.533 555.867 428.933C556.667 426.8 557.333 416.133 557.333 405.067V384.933L563.2 390.4C566.533 393.467 571.467 396.533 574.533 397.333ZM579.733 499.2C579.467 506.667 578.533 510.133 576.533 512.8C572.667 518.133 567.867 521.333 561.867 522.667C556.133 524.133 197.2 524.533 192.267 523.2C189.333 522.4 189.333 522.267 193.6 519.733C201.6 514.933 211.333 505.733 217.333 497.467L223.333 489.333H401.733H580.267L579.733 499.2ZM158.667 545.6V557.333H136H113.333V545.6V534H136H158.667V545.6ZM284 547.067L290 547.333L283.467 554.4C279.467 558.533 273.733 562.933 268.8 565.333C260.8 569.2 260.133 569.2 238 569.467C220 569.733 214.533 569.333 211.333 567.733C207.067 565.6 197.733 562.4 188.4 560C182.667 558.533 182.667 558.533 182.667 552.267V546L230.267 546.4C256.533 546.533 280.667 546.8 284 547.067ZM438.133 552.267C439.467 555.2 442.267 560 444.267 562.8C446.4 565.733 448 568.267 448 568.667C448 569.067 415.333 569.333 375.333 569.333C335.333 569.333 302.667 569.067 302.667 568.667C302.667 568.267 304.8 565.067 307.333 561.467C309.867 557.867 312.667 553.067 313.467 550.8L314.933 546.667H375.2H435.6L438.133 552.267ZM189.333 583.2C204.133 588.133 214.933 594.667 225.333 605.2C239.333 619.2 247.2 635.067 249.867 654.267L250.667 660H136.533H22.4001L23.3334 653.067C27.0667 624.133 48.0001 597.2 74.9334 586.533C89.8668 580.667 95.6001 580.133 140 580.533C176 580.8 183.067 581.2 189.333 583.2ZM522.667 595.733C522.667 601.333 515.867 609.867 509.467 612.533C504.533 614.4 492.267 614.667 382.8 614.667H261.733L258 608.933C256 605.867 252.267 600.8 249.733 597.6L245.2 592H383.867H522.667V595.733Z" fill="white"/>
<path d="M369.6 228.933C368.667 229.333 367.067 231.333 366 233.333C364.267 236.533 364 246.133 364 291.333V345.467L367.333 348.667C372.267 353.733 379.067 353.6 383.733 348.533L386.667 345.2V289.867V234.533L383.333 231.333C380.267 228.133 374.133 227.067 369.6 228.933Z" fill="white"/>
<path d="M371.2 374.667C359.6 379.333 363.067 397.867 375.334 397.867C385.867 397.867 390.534 385.067 382.8 377.2C378.8 373.2 376.134 372.667 371.2 374.667Z" fill="white"/>
</g>
<defs>
<clipPath id="clip0_8_3">
<rect width="682.667" height="682.667" fill="white"/>
</clipPath>
</defs>
</svg>
