<svg width="683" height="683" viewBox="0 0 683 683" fill="none" xmlns="http://www.w3.org/2000/svg">
<path d="M304.667 12.6666C270.534 18.9333 239.6 40 221.6 69.2C211.734 85.3333 207.067 99.0666 203.334 122.933L202.534 128H120.4C59.8669 128 36.9336 128.4 32.8002 129.6C25.4669 131.733 14.4002 142.8 12.2669 150.133C10.0002 157.867 10.0002 247.467 12.2669 255.2C14.4002 262.533 25.4669 273.6 32.8002 275.733C36.4002 276.8 48.0002 277.333 65.3336 277.333H92.4002L111.867 291.867C133.067 307.6 138.4 310.133 147.734 308.8C160.267 307.067 168.934 297.733 170.267 284.667L171.067 277.333H209.867H248.667L253.067 286C259.067 297.467 271.334 308.933 283.2 314.133L292.134 318L291.334 324C290.4 330.267 287.867 333.333 283.734 333.333C279.467 333.333 255.6 341.467 244.4 346.8C219.6 358.667 192.534 380.933 175.2 403.867C166.134 415.867 152.934 441.2 148 456C141.734 474.533 139.867 487.467 139.067 516.267L138.267 544H74.5336H10.6669V608V672H341.334H672V608V544H608.134H544.4L543.6 516.933C542.934 486.667 541.067 475.333 533.867 454.267C514.534 398.667 470.134 355.333 414.267 337.467C407.2 335.2 400.267 333.333 398.934 333.333C394.8 333.333 392.267 330.267 391.334 324L390.534 318L399.2 314.267C418.267 305.867 433.067 286.533 436.4 265.6L437.867 256.267L443.6 255.333C446.667 254.933 452.667 252.8 456.667 250.8L464.134 246.933L465.334 249.867C470.267 263.067 479.2 277.6 486.534 284.533L490.667 288.533V314.933C490.667 335.867 491.067 342.4 492.667 346.4C498.267 359.733 513.334 366.133 526.267 360.667C529.2 359.467 539.2 350.667 550.667 339.467L570 320.4L580.667 318.667C620 312.533 652.534 286.133 665.467 249.6C679.334 210.133 670.267 168.133 641.334 138.8C598.934 95.7333 530.934 96.1333 489.067 139.733L480 149.067V137.6C480 122.533 477.2 109.867 471.2 97.3333C464.8 83.8666 457.334 74.4 445.467 64.9333C439.6 60.4 432.934 53.3333 429.2 48.1333C416.534 30 396.934 17.0666 375.734 12.8C362.934 10.1333 318.534 10.1333 304.667 12.6666ZM373.067 34C377.6 35.0666 384.534 37.6 388.267 39.4666C397.2 44 409.867 56.1333 414.8 64.6666C417.334 69.2 421.467 73.6 427.2 77.7333C443.6 89.8666 453.734 104.4 457.2 121.067C459.334 131.467 459.067 155.333 456.667 164.667C455.467 169.067 454.4 172.667 454.267 172.933C454 173.067 450.134 172.533 445.6 171.733L437.334 170.133V159.733V149.333H406.8C365.2 149.333 351.467 146.4 331.2 133.333C323.467 128.267 309.867 115.067 305.067 108.267L302.934 105.067L295.2 107.333C283.867 110.667 276 114.933 267.6 122.667C255.467 133.733 248.267 147.467 246.134 163.467L245.2 170.133L238.4 171.6C232.134 172.8 231.734 172.8 230.667 169.867C225.867 157.6 224.8 150.533 224.8 134.667C224.667 114.667 226.667 106 235.6 88C240.934 77.2 243.6 73.4666 254.534 62.6666C271.067 46.2666 285.334 38.4 306.667 34C319.2 31.4666 362.267 31.4666 373.067 34ZM583.334 130C607.6 135.067 630.267 152.667 641.2 174.667C658 208.8 651.867 246.667 625.334 273.333C610.134 288.533 592.267 296.667 571.334 298.267L560.667 298.933L538.934 320.533C520.4 338.8 516.934 341.733 514.934 340.533C512.934 339.2 512.667 336 512.267 310L512 281.067L504.267 272.667C478.4 244.267 473.067 209.067 489.6 175.6C493.867 167.2 497.6 162.133 505.867 153.867C519.734 140.133 533.2 132.933 552.667 128.8C558.8 127.6 574.667 128.133 583.334 130ZM303.2 138.267C318.134 152.133 334.534 161.067 355.334 167.067C362.667 169.067 370.267 169.867 390.4 170.267L416.134 170.933L415.734 219.2L415.334 267.333L410.8 275.733C405.734 285.067 401.6 289.067 391.467 294.4L384.667 298H341.334H298L291.2 294.4C281.067 289.067 276.934 285.067 271.867 275.733L267.334 267.333L266.934 216.933C266.534 160.8 266.8 157.867 275.067 145.867C279.2 140 290.534 130.667 293.6 130.667C294.4 130.667 298.667 134.133 303.2 138.267ZM204.667 155.6C205.067 159.2 207.334 167.333 209.467 173.733C213.067 184.267 213.334 185.867 211.6 187.733C205.734 194.533 203.334 201.867 203.467 213.333C203.467 222.933 204 225.733 206.934 231.467C208.934 235.2 212 240 213.867 242.267C217.467 246.533 228.934 253.2 235.2 254.8C237.467 255.333 219.067 255.733 194.4 255.867L149.334 256V270.4C149.334 285.067 148.4 288 144.134 288C142.934 288 132.4 280.8 120.8 272L99.6002 256H69.0669H38.5336L35.3336 252.667L32.0002 249.467V202.667V155.867L35.3336 152.667L38.5336 149.333H121.067H203.734L204.667 155.6ZM245.334 213.333C245.334 236.933 245.467 236.4 236.934 232.8C220.267 225.867 220.134 201.067 236.667 193.867C245.467 190 245.334 189.733 245.334 213.333ZM449.2 195.733C455.734 200.533 458 205.067 458 213.333C458 219.2 457.334 222.133 455.2 224.8C451.467 230 446.8 233.2 441.734 234.133L437.334 234.933V213.333V191.6L441.734 192.533C444 192.933 447.467 194.4 449.2 195.733ZM370.534 327.6C371.334 331.733 372 336.267 372 337.6C372 339.867 342.8 385.2 341.334 385.2C339.867 385.2 310.667 339.867 310.667 337.6C310.667 336.267 311.334 331.733 312.134 327.6L313.734 320H341.334H368.934L370.534 327.6ZM307.734 374L321.334 394.667H275.867C244 394.667 228.667 395.2 224.8 396.267C217.467 398.4 206.4 409.467 204.267 416.8C203.067 420.8 202.667 439.333 202.667 483.2V544H181.2H159.6L160.4 516.933C160.934 496.8 161.734 487.2 163.734 478.667C177.467 419.867 220.8 373.867 278.667 356.8C284.934 354.933 290.934 353.467 292 353.467C293.067 353.467 300 362.4 307.734 374ZM408.667 358.267C449.2 371.067 484.267 400.667 503.867 438.667C517.467 464.933 521.334 481.2 522.267 516.933L523.067 544H501.467H480V483.2C480 439.333 479.6 420.8 478.4 416.8C476.267 409.467 465.2 398.4 457.867 396.267C454 395.2 438.667 394.667 406.8 394.667H361.334L374.934 374L388.667 353.333L393.334 354.133C395.867 354.533 402.8 356.4 408.667 358.267ZM455.334 419.333L458.667 422.533V490.667V558.8L455.334 562L452.134 565.333H420.667C403.467 565.333 389.334 565.067 389.334 564.8C389.334 558.533 384.667 523.733 383.467 520.8C380.934 514.667 374.934 508.267 368.8 504.933C363.734 502.267 361.467 502 341.334 502C321.2 502 318.934 502.267 313.867 504.933C307.734 508.267 301.734 514.667 299.2 520.8C298 523.733 293.334 558.533 293.334 564.8C293.334 565.067 279.2 565.333 262 565.333H230.534L227.334 562L224 558.8V490.667V422.533L227.334 419.333L230.534 416H341.334H452.134L455.334 419.333ZM360.8 525.733C364.267 528.8 364.4 529.467 368.134 566.133C370.267 586.533 372 604.4 372 605.6C372 607.867 369.6 608 341.334 608C313.067 608 310.667 607.867 310.667 605.6C310.667 604.4 312.4 586.533 314.534 566.133C319.2 519.867 317.467 522.667 341.334 522.667C356 522.667 357.467 522.933 360.8 525.733ZM206.667 569.333C208.934 574.933 218.667 583.2 225.067 585.067C228.4 586.133 241.2 586.667 260.534 586.667H290.667V590.267C290.667 592.4 290.267 597.2 289.867 601.067L288.934 608H267.2H245.334V618.667V629.333H341.334H437.334V618.667V608H415.467H393.734L392.8 600.933C392.4 597.2 392 592.4 392 590.267V586.667H422.134C441.467 586.667 454.267 586.133 457.6 585.067C464 583.2 473.734 574.933 476 569.333L477.6 565.333H564.134H650.667V608V650.667H341.334H32.0002V608V565.333H118.534H205.067L206.667 569.333Z" fill="white"/>
<path d="M558 152.667C555.867 154.667 554.667 157.467 554.667 160C554.667 162.533 555.867 165.333 558 167.333C560 169.467 562.8 170.667 565.334 170.667C567.867 170.667 570.667 169.467 572.667 167.333C574.8 165.333 576 162.533 576 160C576 157.467 574.8 154.667 572.667 152.667C570.667 150.533 567.867 149.333 565.334 149.333C562.8 149.333 560 150.533 558 152.667Z" fill="white"/>
<path d="M554.667 234.667V277.333H565.334H576V234.667V192H565.334H554.667V234.667Z" fill="white"/>
<path d="M291.333 195.333C284.667 201.867 289.333 213.333 298.667 213.333C304.133 213.333 309.333 208.133 309.333 202.667C309.333 197.2 304.133 192 298.667 192C296.133 192 293.333 193.2 291.333 195.333Z" fill="white"/>
<path d="M376.667 195.333C374.533 197.333 373.333 200.133 373.333 202.667C373.333 205.2 374.533 208 376.667 210C378.667 212.133 381.467 213.333 384 213.333C386.533 213.333 389.333 212.133 391.333 210C393.467 208 394.667 205.2 394.667 202.667C394.667 200.133 393.467 197.333 391.333 195.333C389.333 193.2 386.533 192 384 192C381.467 192 378.667 193.2 376.667 195.333Z" fill="white"/>
<path d="M372.8 239.333C371.734 245.067 366.134 251.867 360.4 254.133C357.2 255.467 348.667 256 327.334 256H298.667V266.8V277.6L331.067 277.067L363.334 276.667L371.734 272.133C376.4 269.6 381.6 265.733 383.467 263.6C388.534 257.6 392.934 248 394 240.933L394.934 234.667H384.267H373.6L372.8 239.333Z" fill="white"/>
<path d="M53.3335 181.333V192H117.333H181.334V181.333V170.667H117.333H53.3335V181.333Z" fill="white"/>
<path d="M53.3335 224V234.667H96.0002H138.667V224V213.333H96.0002H53.3335V224Z" fill="white"/>
<path d="M160 224V234.667H170.667H181.333V224V213.333H170.667H160V224Z" fill="white"/>
</svg>
